<mxfile host="app.diagrams.net" modified="2023-06-05T07:52:48.873Z" agent="Mozilla/5.0 (Windows NT 10.0; Win64; x64; rv:102.0) Gecko/20100101 Firefox/102.0" etag="7xHFqGrxi7LL6AOjZx0h" version="21.3.7" type="device">
  <diagram name="Страница 1" id="mQYoY9Hfnse7Xxat4TWh">
    <mxGraphModel dx="1323" dy="773" grid="1" gridSize="10" guides="1" tooltips="1" connect="1" arrows="1" fold="1" page="1" pageScale="1" pageWidth="827" pageHeight="1169" math="0" shadow="0">
      <root>
        <mxCell id="0" />
        <mxCell id="1" parent="0" />
        <mxCell id="pg5HeRpY9zaduSCmaGFV-20" value="" style="endArrow=classic;html=1;rounded=0;entryX=0.079;entryY=0.166;entryDx=0;entryDy=0;entryPerimeter=0;dashed=1;" parent="1" edge="1">
          <mxGeometry width="50" height="50" relative="1" as="geometry">
            <mxPoint x="735" y="830" as="sourcePoint" />
            <mxPoint x="630" y="830" as="targetPoint" />
          </mxGeometry>
        </mxCell>
        <mxCell id="pg5HeRpY9zaduSCmaGFV-22" value="" style="endArrow=classic;html=1;rounded=0;entryX=0.079;entryY=0.166;entryDx=0;entryDy=0;entryPerimeter=0;dashed=1;" parent="1" edge="1">
          <mxGeometry width="50" height="50" relative="1" as="geometry">
            <mxPoint x="374" y="879" as="sourcePoint" />
            <mxPoint x="216" y="879" as="targetPoint" />
          </mxGeometry>
        </mxCell>
        <mxCell id="pg5HeRpY9zaduSCmaGFV-17" value="" style="endArrow=classic;html=1;rounded=0;entryX=0.079;entryY=0.166;entryDx=0;entryDy=0;entryPerimeter=0;" parent="1" edge="1">
          <mxGeometry width="50" height="50" relative="1" as="geometry">
            <mxPoint x="215" y="729.43" as="sourcePoint" />
            <mxPoint x="367.78999999999996" y="729.43" as="targetPoint" />
          </mxGeometry>
        </mxCell>
        <mxCell id="pg5HeRpY9zaduSCmaGFV-1" value="" style="shape=image;verticalLabelPosition=bottom;labelBackgroundColor=default;verticalAlign=top;aspect=fixed;imageAspect=0;image=data:image/png,iVBORw0KGgoAAAANSUhEUgAAAl8AAAIHCAYAAAHWZQkRAAAAAXNSR0IArs4c6QAAAARnQU1BAACxjwv8YQUAAAAJcEhZcwAADsMAAA7DAcdvqGQAAH8XSURBVHhe7b0J2C1Fee+7GRTY28282WzYgGwUFQWPGBVEwhQlPIpCGAIJJgqKoNuooOI8PiaCIkaUKDEBQS4KHDXINR7H84heoydy5B6HmBtifBwSkUFRJlHXfX9db63utfb6+uvVvdbq6f97nv/Xvare7q+6urr67eqq6hXGQJpK4U8eO++88z/76sxYt27dtabP+89WkZthA8d/zgTf5RAPLgzbHHzwwYN3vOMdd3lQJY4//vi7brzxxsLpmGlmLMcBBxxwe5JLGS666KIHPHpZfJMhVkpv9qhS+G6GeHAuC82wxz72sXd42oa8+93v/p1HL8u11147OOaYYwZWKgZPfepTB3feeWel9PP/77777kRQpKQtNMMgSVkGDy7Edttt9yvfLMGDS+O7GcLl6VFLsvAMg2222eZbu+666+f859Rsvvnmv/HVSng+DfHgXJYzmleG1nKiZkFrE14XdWXYm3zZOiZl2PN8ebXpEaZnJr9WrHiD6aNhtTK6JPtCXoZ92XSeKdr81JdZbjG9LayueLLpmrA6XC5Fpy7JRdDdS3IZ/+RhvnyQL8fZy5edoUyGbWn6jInL8TjT5qYfmjYzfd0ELBG2O/j6kLF9bu3LlaYtwmrCbr7c1rRTWK2fqiVsHGyXf7zYdJ+PNX3DdJ0p3ok5KdSblR6wZ82sM6wIq+ewT6CEz506Mmwu+zTYJyWSEk4VASwJp5TG+nZ7X5aiSRlGXYUbk2VXX44wjzQVpUkZVpgptj/Rl3mwu8LpaXOGzUzTpGdZw2l2VpSq+5xxmtidMmwK2J0ybArYnTJsCthd7zJslS/nTlcyLI+TfDkTupZhtI7g7RNPC8rZJrz87Uw8q1amaxk2d5RhU1Jnhj3LRLM2/NIU1//TFNf/P1Nc/9+mZH0eaSpKnRkW2ceXhZlHmorShAyjOeZpYTVZR7ER8ZWm14fVFTuaDgir9dGEDGsVTcwwGv32Nx2Y/GoYtWSYMY99LgRl2JTUlWGtpa4MG+8qcIWJO+DBJt5PHms6yvQ4U6OoJcPmdBIWgjJsSpRhU6IMmxJl2JQow6ZEGTYlyrApqSXDjO72cZ1ThqmE9YW6MkyX5JS0ttTWlWGtpa7M0EiQKenuJSlG0SU5Jbokp0SX5JTokpwSXZJToktySpRhU6IMmxIyTCqufOYx2RpsttlmhWd0WoLGDGkegZYK8J+VOfHEE2/1XSZ8+MMfvt+jCrFhw4YLfdOZpem+++4b7LTTTvSfbR5+rCN4VCF8kyEeXAoyyXczxKOag6drBI8qxJVXXjnYd999B7fffvvg6KOPrnSA/u8H3/nOdwYPPPBAsu5RzeGkk076WZIyxy7JqeYB882GeHApfBcjeFTzqFLp243o/9ji5PCrGp5PCbvtttuy00cUpbk5L0QveK2JydWuT36lU8NwaT46rIqyZCcX6jXMSPIeE6XqNaY4A9M4bzedb+JRhdmeYFbT/onOg3/iq0sxaUalh/iyf0zIMOZFjJOpPd70RRNcZSLs2cmv0QnWXubLBPYJ/jNLnOWOidbWhdWEtb5sPksc2HKc48uJJLll+M/Ix3wJe5s4MQxqZyK29jDhwKpyb5Jbhv/uFvM4sCS3DP85Sy4xXRhWkzv2002nmPhfjzQdZsKnfLVpPszjwJLcMvxnJE4QWYRJ2zeDeSQsOVrDf07L6aYi259mitP65VIhLZsy05057BP8Zxni9jOR72s2zHRnTpJCw3+Woer2I8xyX8qwaZnpzhz2Cf6zDFW3H2GW+2p6ht0XflajYlpGmenOHPYJ/rMMVbefH/NIWHK0hv8sQ9Xt58c8EpYcreE/y5C3PZOrIVqNbyDAwJaZpJh1fb5UPLCJJEdr+M8yVN1+fswjYcnRGv6zDFW3nx/zSFhytAarpl+b4oRqt5vi+g9Mcf3bprj+T6a4ffOYR8KSozX8Zxmqbj8/5pGw5GgN/xmJTS8Xm2jFpVRh82kTU8ywnm1kbCYTDqwySW4Z/rNbzOPAktwy/OdSLGzm35lS4MDKwD5VwoShDJuSBWcYTcqIbgmfMnFXnFknt4Uwjwxjn+A/4UW+bD9jBzYTktwy/GeW7Juj+I3LdrHEgVUiyS3Df3aLeRxYkluG/+wW8ziwJLcM/9kt5nFgSW4ZtjrVsJlW4Ac2U5LcMvxnt5jHgSW5ZfjPbtHZA5sXyrApUYZNiTJsSpRhU6IME0IIIYQQQggxAT0rirlSqYBdeOFw+rMB6x7cODZs2HCHJ3OEE044gU+CL4rWTl1bhaqFwk9V0mrWxAL2YE9eLqtWrWKg88yxgn2p/4uJuFltMAGYJ2UT3KQyZXcUC9RSqpskHddcc02SWZdeeungAx/4wOBHP/rR4IILLhg89alPHeyyyy5JXCRsNluOPPLIwWc/+9nBfvvtl8w/uHHjxuR/nX322cm8hDfddFNteZUkZBlmMZNmEwrDPClUg22xxRYnuf1M8d0vyerVq+9204XjSciF6VrdvDRdL2AJOT7YrW4yNw466KCRSUUjHl0bN954o6dkady0ErPYCfM7IdFCJhU0uzV+06MrU6WATSpUTS9ovXySq5OyBSyvIDW5kNV+a+obynAxV4oWsDji51DTu8LqcMLlOGaW8WafD6vJhMyPMTH17ZMIaAi6RS6YJtRgDIykcJ5reqaJuZmZ8JWwd5piAaWwXmN6RPKrHKqxF0yZDM9OoczJX2naMvk1G5aaHFy0kFlc0exj2v1gTw0Vt+OW+rqwOnIbYzary0zPMMX/w3b8frD/ngbdIhfMtCdoE7zppPJ+FkReOq/wJTzcdFFYTaYOZ/afWLMyDzvr8UU5t/jtTKtNJxIgUhZVwLYycRul9kFwuOly0+tNx5i2NwFzwDNJxfdM7JcHh+xUToQhTmysxdAbTfyPiRP1eDITPEgsgMqZ7ees8SfNk5ngQdNypi/FFPShgN1jWu3JTAjBheFzJNSgjzNdR4CxuWnS92JmBbUzt2Zux3xDgWYiJor5oIk0bGviTvASU+QTpt8Lq8ktnkn+Iuwn3jkWSh8KWIInM8GD8sCngvNMtPtFf4tplBAF7jMEGEWnVuL/RvWGygfr56zxmebJTLCfT8nokIyYHDbq4IwOctEsE/XEjJ6QEbVIFK/N+H98X8j/+9R5RfvgPmF1xdNMfKvjj018IYaalIeT+ECyiym7f74cM5euSEWpXDA8zyrvZ954MhM8aNH4f29UXvHkC56y2adNBWxx+H9XAZsKT5cK2PL4f29kXnnKVMBK48lM8KBF4/9dBWwqPF0qYMvj/334/2fy/aUZ4SlTASuNJzPBgxaN//dG5pWnTAWsNJ7MBA9aNP7fl/3/u/uSpo0NJhpIeRfKh2ppsthoApokvmqKzRDPNdE5YEfTWSaaKGijO8pEoysNtwtHBWxx+H9vfl7NEhWwxeH/far/zwv/I0zUUnyBnzcKa0x0AGA/cV/UXNgCr4WIX+S0CEtSObM9z+o6aYXxZCZ40KLx/978vJolKmCLw/+7CthUeJ6pgC2P/3cVsKnwPGtzAaPrC7zP9BzTqcmvFSv2MzHIhDEHjKbiu5Z0aIyvV/7Ol7zUptMk37kE7KCW7jFNQwVMzBUVsKWhHelSE09vdADkN91k6NhHzUZbE50B+WovY0TpEMgAFeyFowIm5kpvCpioh74VMI2LXDB9K2CqaRdM3wpYESZNXcB8GdnPPzMeM8uuvhRj9KaAeTITPAhou3qNicEZPBkCg4DjMLX4fi8LI42I/5vkV3jnF0caMQAEGvEesAn0vYCJOaMCJuaKCpiYK30uYPf7UsyRPhcwsQBUwMRc6U0Bc1S4FkzfCphYMH0rYHoXuWD6VsBU0y6YvhUwsWD6VsB0i1wwsygY7KMtBawt6ewMynAxV/pWwHSLXDB9K2CqsReMMlzMFd0ixVzRLVLMFWW4mCu6RYq5ohpMzBUVMDFXVMDEXKGASdI8JEQ7aEtpfdiqVavu3Hrrre+2db4NWQd8Z1IUxbuCJXhQI/EkboJFMSfFoni5L0VBXufnKYHfIbhZePKWxEyYOWduvPOd77yb/3Pttdcm/w/22WcfPtPcCHbaaaf/feONNw7uu+++wfHHH9+siYs9vxI8qFF85zvf8dTl4+Yzx3c/kYc//OF/62a14UnZhN12261RBa2RhQvIrPPPP3/wmte8Jsm4pXDzmbJu3bpv+u6XxE1rwZOwJFazfdNNa4HMWUpNIEkLrF+/fvDAAw8k6zfccMPgtNNOG5x11lmDXXbZZXDCCSck4WbLx9Vnyk033ZTsm1r0d7/73eDkk08eHHPMMYMDDzxwcPrppydpctOFw20xSZxx9NFHJ8tzzz13sHHjxmQ94ua105iEjOP5tCxuPlPuvPPOwZFHHjn4whe+MLjnnnsGT3jCE5Lf++67b3JS77333tryDZ8rQlq48Cw4ufCyBOv6aWwBq9MHW7169T2++yVx04WDQ18EN6+dxhYw8LxaEjOZ21Ok/4uJbLfddr9ys4XD06InIxc3r51GFzDw/NoEi5p7O5j/qxGe9KQn3erRteFJWRJuo25aO9/3ZdOJLfnUHItuyT958803/82aNWu+5b9rh6YIL0sTcbPaoQZYSE0gZk/2aTLSpJorol6iYi6M11qqxcTMyFajS60LMRN0ixRCtBfdFkVlXmviw1Dnm/gwOvC5YQoXHzTgY+pAN4/Y1YMvkv1lWBViefga2Q4uoHAhChEFjK/xxwL2aRMF7EyTEJWocot8tC+FWJIqT5F8ZxH4buOXTN82fcP0SNNTTJeYsgU43pZFR9ndl1meYeKk45+xnKa7LR39djQ9ykQB+6LpChONtqtMFLZsgWJdBazjRB8swgl/iGmL5NeKFY8wxQeBMuDLCTFEDa1ibsRb1rS3LewfasreTv/Yl/FW+2zTnib8Mn7zbW2WbzAd5OtIdBXv4ZHgQVVZaYq32q/6EqrcckVb8bKV4EFthIcK4En2p2F1xQ9NDwurwzAamqllt/J1eLgJ2z1Ml7nErPCyleBBk/i6K54woNEWHmuKt8krfckJi9uw36tMz/XfPEDA80wvM73NdIOJffDk+VbTRDyZS6Vza19m2cyXERqOI3GdGlfMCz9nCR40ztNNPHXSoEoN8R7T2037m55pykJtsE9Y3YRXmPC9HmfaxtcfY4o1CRxu+qOwuimezDbXtP3Dz1mCB82DA30JFKxSeDKXSyftbvE2xwVBzUhjME/KTzMxpwT7oCZliS1td2Ie+DlL8KDG4smsks41vhSLws9Zggc1kfv448ls/IWwBFn/rz/4OUvwoCZStoDR/ga3+JJb5sdMzzfFh5R5wTvXOCAYX/WjJm7RcJLpsLC64qW+pNcKhZD0xTh82teb2E87Lyw/Zwke1Fg8mW3JaNJJwYgPMTxZx7SzpBDhm8YmFsKONl1tigWMp3bCdzZtNPFut134OUvwoMbiyVwunVzxR5k4odRYcI6Jk8YJw+HnCfg601tMNIvEk7wc/O8oUQQ/Zwke1Fg8mdOmc52JNjhuizxhlsb/vQrYNHieJXhQY/Fkks5DTfQ1i2IaAfTkjA7OiPeeUUziG/VE1xMy+r2MaPhFSd74vy9bwHhVxv/Kcp6JNwjwRhO1K2nHZySOBmhuje3F8yzBgxqLJ3PR6bzNl1UL2Di7+RLW+rI0nrRZpW12eLoSPKixeDJrS6f/++adRMOT1ry0eboSPKixeDJrS6f/+3gSm6TrPGnxd3PwdCV4UGPxZNaWTv/3zTuJhieteWnzdCV4UGPxZNaWTv/3zTuJhieteWnzdCV4UGPxZNaWTv/3zTuJhieteWnzdCV4UGPxZNaWTv/3zTuJhieteWnzdCV4UGPxZNaWTv/3zTuJhieteWnzdCV4UGPxZNaWTv/3zTuJhieteWnzdCV4UGPxZNaWTv/38SQy9vMewpuAJy2mrTl4uhI8qLF4MmtLp//7eBJVwIrg6UrwoMbiyawtnf7vm3cSDU9a89Lm6UrwoMbiyawtnf7v807ii010FxIRz7MED2osnswmFzC6BDF6KttzItoyNvNcE50QGcYXe04QBqf4koloPmWiL9tZpptN9IBldFf78DxL8KDG4slscgGbBB0fixI7SHYHz7MED2osnsy2FbB+43mW4EGNxZPZpgL2hyZsGWjMRDH0rmUQM2M16fxIGPF032bAB4NDGKdJ127W45QH7cXzLMGDGosns7Z0+r/n/xdNA9MSMAo+e5uMhSYO6EAUMKBQMYkfBZD17OQx7cTzLMGDGosns7Z0+r+PhUIUwfMswYMaiydTBaxNeJ4leFBj8WSqgLUJz7MED2osnkwVsDbheZbgQY3FkxnTyfI3YTVpsIzvBVn/eVhN1uOnj1n/UVhN1v89rCbr/xJWk/X/N6wm6/8cVpP1r/i/VwGbBs+zBA9qLJ7M2tLp/14FbBo8zxI8qLF4MlXA2oTnWYIHNRZP5qR0xtHRNFzSqHmkidHRjABnhPZfmWjIpI2JdijmroBXmZhlJ06jyUR08cslzGXBlJ+iCn7OEjyosXgyJ6WTF8bZwkAjJgWMOVr5qBfbMIcrohGTGW8oaITz+2ITxAJGGAWMAiqq4OcswYMaiyez8ekUGfycJXhQY/FkqoC1CT9nCR7UWDyZeemMt8PTTNsTMEac2A0uNGHL7ZI+WjRFXGSCOBOhqIqfswQPaiyezCrp/KAvxaLwc5bgQY3Fk9n4dIoMfs4SPKjJkEYVsDbhZSvBg4SYHV62EjxIiNnhZSvBg4SYHV62EjxIiNnhZSvBg4SYHV62EjyoC8QPK2xnYjZnjm0XE42q8WU2X9QAxiLyqec3J7/EbPGyleBBbSf7YdJtTTua4kiefn6Qqk68bCV4UGPxZC6VTj50KpqGn7MED2osnsxJ6fyML/li2e4mvlgGzOtA7cW4Qz79THgcns+YQ+aDoGsPNnE8Yuyug0RV/JwleFBj8WTOKp0UMG6hFEgxL/ycJXhQY/FkziKdsUermDd+zhI8qLF4MlXA2oSfswQPaiyeTBWwNuHnLMGDGosnUwWsTfg5S/CgxuLJVAFrE37OEjyosXgyVcDahJ+zBA9qLJ7MmE7GOr4krE6NCtii8HOW4EGNxZM5iwImFoWfswQPaiyezManU2Twc5bgQY3Fk6kC1ib8nCV4UGPxZKqAtQk/Zwke1Fg8mSpgbcLPWYIHCTE7vGwleJAQs8PLVoIHCTE7vGwleJAQs8PLVoIHCTE7vGwleJAQs8PLVoIHCTE7vGwleJAQs8PLVoIHCTE7vGwleJAQs8PLVoIHCTE7vGwleJAQM4WCFSWEEO1DtZeYK2/ypRBCtA/dIsVc0S1SCNFedIsUc0W3SCFEe9EtUswV3SKFEO1Ft0gxV3SLFEK0F90ihRBCCCGEEKIv6AlQCNFaVIEJIVpL3RXYaddff73PbRHgN+EhWkzLXnvt9f7jjjvuZ56dE3nFK17x8z333PNG36TL/MC0c1gVXaTOCuw0v54mQnwwEwVYc+65597uWTcVn/70pwfr1q37U99Pq1m/fv1nDzjggJ/vt99+g/vvvz/RF77whcGhhx76sz322ONzbiY6RJ0V2J5+DU2E+GAm8li1atXPPcsq8dCHPvQO32Wr2H333W/yQ5jItddeO7jrrrv8V8Aqupt8896z0047ffPGG2/0nFkabMz2f/tmjaHOCixh9erVt37yk59MMonHR357lFgG85z+Ocm4GfHgBz/4ft91K7j88ssf8KRPzd///d+36lhnzW677TZaq08B2/puaqf2CixDk9LSCt71rnd5kUq8igGPTnDDDTcMDjzwwMF//dd/Df7lX/5l8KxnPSvxQoi/9dZbB1deeeXgwx/+8OC0005Lwr70pS8l2/34xz9uzTk48cQTb//5z38+OOGEEwb/9m//lqR/Wmwft/nuesUkj+uYY47h3CeC888/f+T3OOzD4mqnEYlwmpSWVjBegYF5sIN99903Wf/Rj340eP7znz9473vfm1ROxx577OBf//VfB+973/sSARVApE0VGOk9/fTTk3R//vOfT477qU996uBDH/rQ4Lvf/W5yzMcff/zgkEMOGdx9992Dww8/fHDAAQcMjj766GSbiy++OFn67nqD5clEz4t8+cd//MfBi1/84sFPfvIT2g2T8I0bNybLSbAv321tqAJrMfYI+b+8LM2ErbbaqjWPVZdddpmnelN+8IMf+NqmnHHGGb42GLAP311vuO+++/zol4YbWZYLLrjA10ZhX77b2lAF1nJ63Ih/sie9NFtvvfUpvq/eUKTBvihNeIxUBdYN1rz85S+/08vVVNCNYocddjjV99M6/vzP//w2P5TCPPvZz+7tiyLeJHo2VKYJbyVVgXWM9evXX3Lcccfl9gk777zz7jK7L/kmnWC33Xb7p3e/+91LvpW86KKL7rNj/ic37zV0nfBsKU1TulQ0pdL4gIm5xViK2aGbgliSMl0pmtSFAppQwMcrLVVis0MTTopC4FHxVpF2LRrnEeuENcXbmkSdFdh4RTWeFlVkQohc6qrAJlVOk7wFVWLV0COk6DSLLuBlKyRVZOXQI6ToNE26Q8tbEEJMRZMqDXkLs0c3BdFpZl3An+dLuMaXoj50UxCdZhEV2E9NPzRtZ+L/cVFdbzrKf8c0xOVzTKx/w/RsX0f0P3mD6Rmmg0wPNhF+uUkI0UNipTFPHubLbXyZhUkLNzftYJK3MHsWcX6FqI2+F/DYq/giX3YN3RREp1lUBXaziZH/x5qeafqU6RATj4P8Jh3oE6aXmtabXm2KcXuZ/tjEo+c84JH0ANNnTFRqbzfFsYJfNO1k2jv5tWLFW0wnhNVhuseJ4TxGjz8qCyFmxKIuKi7kDaazk18rVrzHl1QW60yk4y9NrzI93kSFQtsZEPdaE4+aXyZgxjzatEVYTR5ltzStTn6lUIHxuEt8hEo28ghfLkV8VF40qjRFp1EB7zZ6hBSdpkkV2CLSEtu8WPIpsSeYoqcHvOXksfVqE285ecP5RtNupuwjbawY8AjZBl5pwsvKPgZn/1+0Y/v4BvWJpneZhBAlqL0C81k6RvCoeZCtUD4fVodhECuZ15m2N1ERHWPa35R9pI3L2C4GVGArTdnH4PEK7NOmx5iowOha8iAT7YHzovbzK8Q86VsFNiseZXpcWG000zxC7mI63cW6EI1HFVg3IQ/HtRyHmrZ1sc5bWcg+YlOxfduV9T7xJvEybzHx6MyLkO+Z4AW+5G1sDJ+0T7Yl/rEm4EXPiaYPJr+EmECRgj1XvM4awaOKQjvSKhNv+rY28VaRC4ELkIvqHBP7PNcEh7v+0BQ/6sDFyKMdj4vAW8nfN9Gmta/pMBNc5ct4cca0MmqAx0wuxhgWu2HgqRG2qy/jYypdNniU/KgpPmrGbemXRhrhb3xZGM/GETxKiE5Re8H262sEj5oGtqESoE1pP1OswOK+iKMy4jeVTayQTjKxTjgN8rEiAdbj9ngHrFNBQrYCQxckv0J/N8DDiHFRwPL1poebqGipwHhhAGzDoyk2hMV04d1MhWfjCB41LY/05cUmKm88pQjHym/a+8iPzXxJGC8y4GRfsu0fmbLbk9+Iip3j5rxcYhKiMGUL9szw62sEjxIl8WwcwaOmJT7OfcxEJX6DiT5xwA2C/n14srwQoVLmrW5sd8tWvFRUeMBfTX4FYiUP/B8qP7xSIQqjCqwbjHS89WwcwaOE6BRNrcCk8rrOs3EEC581PApHaD/Eo8JTA9r98NCuMxFGBYuXxWP8Fb5sI3iccVaVSdCeSVuoWBDzKNhT4dfXCB4lilOHB0a7FZxvoqNvWyulaYgvcXhM5lGavn60911oih8HZmjcn4TVZAwv+fLk5FdoL+Qx+mXJr7Dty8NqArZ7mKjkyVNe5lxmAtbpVA3ZdaZb52UUNw3agDkfbzP1AlVgHcSzcQSPEvVAxVUEuo1E1vpS5KAKrIN4No7gUWXgDSTQj4s7PI35wCPieWE18QhoqKf/WBwaxTxwL8qI0Q08TjK7B/uIdiyJ/7Pk12zwo04hLESJLqEKrIN4No7gUV3km6abwuoQP+oUwkLUXOCNK+2AdDuhbZDRDDuamF34oabTTDxG8vjIkhtB7LJzpil2O6HrDG9zgXW6qmBPpU+/QroH8b/oekKlz02DR86iHl7nUAXWQTwbR/CorsLx3W6i4gA/6hTCQtRcoIKJowuomGLl9DRfUoERFvsJxu4kMV2IiopKK85gHMfIxgqMPoi8JIgdn+PLBNb3Mc2CbHqyaiy1J87L1wgeJUri2TiCR/UFP+oUwkKUyMFzK4WwENVMak+c59MIHiVK4tk4gkf1BT/qFMJClMhwr+k+U3yL7bmVQliIaia1J87zaQSPEiXxbBzBo/qCH3UKYSFKZLjHpAqsCp5PI3iUKIln4wge1Rf8qFMIC1EiB8+tFMJCVDOpPXGeTyN4lCiJZ+MIHtUX/KhTCAtRIgfPrRTCQlQzqT1xnk8jeJQoiWfjCB7VF/yoUwgLUSIHz60UwkJUM6k9cZ5PI3iUKIln4wge1Rf8qFMIC1EiB8+tFMJCVDOpPXGeTyN4lCiJZ+MIHtUX/KhTCAtRIgfPrRTCQlQzqT1xnk8jeJQoiWfjCB7VF/yoUwgLUUNGBsCLBM+tFMJCVDOpPXGeTyN4lCiJZ+MIHtUX/KhTCDMxvU9cj3nCMk7C2Pd1z60UD28stSfO82kEjxIl8WwcwaP6gh91CmEhaog8sE3x3EohLEQ1k9oT5/k0gkeJkng2juBRfcGPOoWwEFUY5viPEg1FFVgH8WwcwaP6gh91CmEhqjDP9+UrfBlnmdjGxL6YZWKDaaMrftGKD5PsYGJuLyY6ZOJDZp94rgmys0wwEBtbZpaI/J2JjyMDM8D+nokPJscZcJnGiMHdwHZxHdg3+/x68qsH1F6wvXyN4FGiJJ6NI3hUX/CjTiEsRBVmvAKjYkDMW0blA3yO7w9MT0l+BeKXlfh/TH0TKzCm1oHsLBPMtsosFlRiED90gvjSO/+Pr7kzJ9tSFRi22DF9DxUYc65lv+vZaaY9qTPHy9cIHiVK4tk4gkf1BT/qFMJClOgSqsA6iGfjCB7VF/yoUwgLUaJLqALrIJ6NI3hUX/CjTiEsRM2MD/oyfnEd4rcwYxtU/M7l9SYeAbOPl3C2ifWzTHTxoG2Mx0i+kflME9utMcXt/tRE+Bmm+HHlXjPrkzo1Xr5G8ChREs/GETyqL/hRpxAWohYKFVCEjwLzAmDb5Ffg6b4UJVEF1kE8G0fwqL7gR51CWIgSXUIVWAfxbBzBo/qCH3UKYSFKdAlVYB3Es3EEj+oLftQphIUo0SVUgXUQz8YRPCryn6Yu57MfdQphIUp0idpPqpevETxKlMSzcQSPivy7qcv57EedQliIEl2i9pPq5WsEjxIl8WwcwaP6gh91CmEhSnQJVWAdxLNxBI/KI36Y9QJT9lV/G4kV1rhEx6j9pPr1NYJHiZJ4No7gUUvBjAsnhNWEOLg4flmaMXbxk/ev9uVLTXS8fIaJcXj0eXqNia9E8/9uMQHj9I4zHZv8CpxiioObs/tgnCCdOhnHx/askxZsjjKdZCIt9J/is/qi56gC6yCejSN41Cyg4qoClVCkFwOOxfxQBdZBPBtH8CghOoUqsA7i2TiCR00D2zAPFdOzwC6mI0yM83uXaTsTNutMPOIxPxZjAVeZeGyM/5PpaM4xEc/8VsyRBbS5xXVsmXZmKxP7erCJebDi/+Zxkn0KMUKZgj1T/PoawaNESTwbR/CoaXiZiQpp/+RXgErn86Y9fP2dJoiDl7FHL0h+peWLZdR4BcZcWMx3FefN+isTlR0V2dWmZ5kONDEvlhAjlCnYM8WvrxE8SpTEs3EEjxKiU6gC6yCejSN4lBCdQhVYt1Feik6jCqzbxG/+CdFJVIEJIVqLKrBuo7wUnUYVWLfRI6ToNKrARB50XuVjroj1SXzUFMdJCrFQVIF1m6p5yQdSmZkCZT+WSs/4LU10ct3cRKdT/tcWpv9mIo6v5jDukS/vxI9bPNrEh2FjD/vHmdgXA7bfQoCRHVQuRC6qwLoJeTguITpH7QXb66wRPEqUxLNxBI8aB8/pGyZmmMBjYuzjJ0xMV4OIW2sCbBnyA/uZTgurw2ltGBKEN8VwIPbFp/TZnu34TD9h601Mt8MQIrw54vcysS++eRj3yf95jwlvLe6PsZHsK36aXwhVYF3Es3EEjxonPhJ+28R3C59s+qLprSYqDdjdROXCh1d59GPcI2MUqayogOJEiI8y0R7GQGwqmjeYgP9xnomK55EmKjMeO0kT+2KA9wtdPEoyoJv/QzgV2kNMjL88xsSAbv6nEAmqwDqIZ+MIFnyuCc+mLn3cJMRMUQXWQTwbR/CoOmFGVSFmiiqwDuLZOIJH1YkqMDFzVIF1EM/GETyqTlSBiZmjCqyDeDaO4FF1ogpMzBxVYB3Es3EEj6oTVWBi5qgC6yCejSN4VBbeSi4SVWBi5qgC6yCejSN41K9NrNclIWZK7YXKr68RPEqUxLNxBI/KsmgPTIiZowqsg3g2juBRQnQKVWAdxLNxBI8SolOoAusgno0jeJQQnUIVWDchD8clROeovWB7nTWCRwkhRC6qwLqN8lJ0GlVg3UYf9RCdRhWYEKK1qALrNspL0WlUgXUbPUKKTqMKTAjRWlSBdRvlpeg0qsC6jR4hRadRBSaEaC2qwLqN8lJ0GlVg3UaPkKLTNKmyUMUlhJiKJlUa8hZmj24KotOogHcb3RREp9EjpBCitegRstvopiA6jQp4t9FNQXQaPUIKIVqLHiG7jW4KotOogHcb3RREp9EjpBCitegRstvopiA6jQp4t9FNQXQaPUIKIVqLHiG7jW4KotOogHcb3RREp9EjpBCitegRstvopiA6jQq4EKK1qAITQrQWVWBCiNaiCkwI0VpUgQkhWgsVmCRJUtuUMClCkiSp6RJCiNahyksI0UpUeQkhWkljKq+NW2211d2me1gPQaIq22yzzVlr1qz57hZbbPGbzTbb7Hc77rjjD3bYYYc+Ds/6nC9Fd6i/8lq5cuV9gzEI82gxPau23HLLBz772c96bm7K9773vcH222//K7N9Qtiks5xmen9YFR2j3sprp512+oxfT5tAnJuJgmzYsOEfvvjFL3oOLs8dd9wx2Hnnnf/DN+8a9/tSdJN6K69jjz32F34dbQJxbiYKYI+H/+5ZNzUPetCDfu27aTtH8Hi85557/u79739/cmw//OEPBxdccMEDhBMfzEQHqLfyevWrX/3bpIRNgDg3E8uAx+XZVpptt932Nt9dK9lqq63u90MZcvDBBw+uvfZa/xXAzjcRo5y+atWqe9/3vvcNfvSjHyV5xZLfhBMfzBpDvZXXpPauiNq9JjKpsX3rL3zhC55r1dhmm21O8n22iS1OPfXUn/ohTIRKLMuf/Mmf3Mp2YfPe87gnP/nJd3rW5IId9mGz2qm9wX7/r3zlK541KYQRF0xEhk1OGG9oPdsqc8ABB7TO+zrssMNyK66lOPzww6nA+s5rv/a1r3mOFAN7tgub10rtlRc8g/at2267bYC8resZIUqMsckJG38sqsLvfvc79r9r2HPzWbt27fc86aWw7f/Fd9VHTo+Ph9PCdmwfdlMbjai8RHHGT9iRXp4S7r777sGtt946+MEPfuAh07Nu3bqP+L4bz9VXX/07T3YpPvKRj/T2AqAtqwps77uqC1VeLWPkhO2yyy5/52Up4Vvf+tbgyiuvTNb322+/wb777jvYuHHj4Le//W0Sbl7t4KlPferQ5oorruBRcXDggQcmv2HlypWteMu7ww47nEN63/KWtwxe9rKXJWkvw6pVq17iu+wNq1ev/pkf/ggWlejQQw8d+f3Sl740+T0O+7H4uhi5FhYBDc7DTJlS+nDHWJ5su+22v/RylPDf//t/HxxyyCHJOl0FWD/++OOTyum9731vUlEddNBByTphF1988eDmm29O7CPepaDxMFog+6Lixz/+cXJMZ5999uD0009PKu4HHngguRDPP//8wXe+852kQufR+Oijjx6cfPLJyXbsx3fZGz7+8Y8nxz7OpZde6muBV73qVcnyL/7iL5LlOOzHd1kHdf5vUYKRE7bTTjv9rZejBDqd/uQnPxm84x3vGPziF78YVl4QKy/EOkyqvMzz+rnvvukMrrnmGk/1YPD973+fRvjk+KicgOM78sgjBxs2bMBLSLzOD33oQ4Pvfve7wzxgP2F3veH05MAngJf+yU9+MskT4LEalqq8gP0le108fTtvrWf8hI20ec2CtWvX/l++70YT37Lao/Ng/fr1SdrxtqigqLzQvffeO3jCE56QeF94acccc8zgnnvuSewIBx9P2xvshved5MAnQGX/y1/+Mqm8eOPPCzTaUfFml4L9hT0vHFVeLWOTE9bXt43r1q37R0/2Jpxxxhm+NpnsCw2rrD/lu+wFDNL3Q8/FTH1tkFt5sb+w54WjyqtlbHLCetzPax9PdiXYT9hdPyhaeRVFlZcoylx72Nu+/ijssh3sv//+t3nSS8H2vqvekPfYWAY9NopK7L333n0d23gk7TJlYDu2D7vpFUs22JeB/YXdLhxVXl2hr7NK7Lnnnjf6YUzF+vXrb/Rd9I6lukpMi7pKiJmBB9bH+bysAvsCXSWKgN1ee+31ed+0lyzVSXVa+tZJVcyfvs6k+vjdd9/953fddZcf5SiEE49dMO83Gh40WyhUKlgzZPPNN3++PU5+J85hv8MOO/zHQx7ykDd4dFfZdt26dVesWrWK6VsY/nPn2rVrP0R4EisiGpg9Qz7gEmJW6NEiH02JMwOyCVGBE2JxaDLCCkzytuSBiVmgwfzF0TTQU7JUO5fav8QskBdfnqbnXe3py/Ow5H0JUR9N91prrbyK/HPdOUUV9NjYXWqrG6bxquSBibLo5leepuddLembtj1L7V9CLB49Nk6gjCcl70uUQY+N3WXhlVeVwqSCKKZFj43l0WOjEKKV6LFRiBqRt95dVHmJTqMCXh49NgohWkkvHxu/50t4ly+FqAM9NnaXuVRed5mYMgNRef3QtLeJfxbnknqlLz9jerrpiaZDTM803WI63BSJ67/vy4+a+OJLdn/8TyHG0aNFeZqed3NJ37jn9TIT/wjtabrM9G0TsKRyO8ZEJQZfNVFhfcnENqzH7YHK66cmflN5xXAhxOzQY6OJf7KlLyN4Xg82Pc10oukZputMECsv4umcOu55xf2wjJ7XXA5EtB49NnaXhVzzW5h2NlEZjbPel6tN24RVIWaGbmrlaXre6dwazG3O46wQIqWXj41tgtkh+YLOVqbYDie6gx4bu4s8L2OtiTa4F5n+1ERlxgsB+BsTb0BfaCKzfs+XzzEda+LNKHzdxNtVHo8htsW9zpfZt6picaiAl6fpebew9F1uepKJf0iXiE+ZqBSAt43PMjGx/82mx5piwnjjeIrpYSbCWN5gmgfs/6G+jF0vXuDLWHnBVaZYaT3atMG0a/IrJb4Fjdtk36oK0Qb02OjEfxQrg/f4EqgMgMorXvDR/kLTKhOV1gdNhH/DNCsuMR1g2t7EvuOXlJeqvOJbUzyq3Ux4VPCXpkNNsRLLel7jb1XF4tBjY3eJdcTc+aJpa1N8HIuVFxf7n5nWmbjAqTQ2M5EwHuf+0BQrry+bdjDNsvKCHU3ZBnv+F5COLKQpxsEaXwLHlvdR0+xbVbE4FlbAO0jT826h6dvLl1liZQYxMbGCoPLKQlcKKrKVya/F8xJfCtEH9NgoRI3osbG7qPISnUYFvDxNz7vendvxoUa0sdFgf27yK8DwJN6EXmPiDWF8kQDZt5+0wQGN81eH1RXXm7JvTMf/X3ZQ+XGmk0yzbsMTYhbosbEAJGKS5sH4IG/eFlKBvT35FaCCASqvOE4zhmXffhL3bBOwP042lVfcPxr/f9lB5VRyMY63mGL26LGxu8RrqlYG4xAWombOuCf0NtOjTOcnvwLZyouKbXMT6Rl/+/lI03g6qbyyb0zH/1+0Z8kLgN1NVxAg5sL4+RHFaXreNSJ9XmWlEBai5g5dL/B68rowLPX2E2I/sHHiNstBj3wqRyGahh4bC+BVVgphIarRvN6XXYI2vv182QX02NhdVHmJEeLwpbiMc6xBbKujn90uJjrm0u5H+MNNwNjNR5guMmW9zz8w8Tg9Hp7dJ/vYzkTFyfArHssPM8Ef+XJaVI7K0/S8a0T6vMpKISxEiZLEPBzXcjDAPLucVHkxP9t/M/G4HSsvHn0fYqJieoqJsZxM/R1hBAVvccfDs/tknOiDTFRcvMxg+BUD44G3smKx6LGxAF5lpRAWogrD3Z5tuAC48KIebwLu4KwzthA77vBxXCIXFcN3CM++dWS4D2Hc9Wkbw3NgSmum0Yn7Z2gRbyC5COG5vmS85pNN0Y4LnQHcLLnAeVEAxD0vrK54s4kxlmyL90GjP/F0z4jDi4riOZlCWIhalry5zTjOncJqUrlMmmASqIRIP5USxFER4+GQ3Wd2iFXchvZIvLwy6LGxuxQtz3PFL68UwkJUYaI9FUlcZxnf9sWppRljCQy0pjKKtngLzOmV/b9x/a9McZ3HHjjBl1x0R4bVZEod7Hikot3oNBMQxkXO/6cSol8ZbzSZHYM4+olxkVHxUrnFRyUqMdJIuj5BwBR4TqYQFqJ6RR+PeVY0Pe8akT6/vFIIC1GFiZ7Pi01xW5ZUGHHWCtZjtwQqH+JjwzSVBN5Y3A/E/TzfFNff6Mts5RW9OypE5vT6WPIr7bjKtlRe2OFZUHlRccU0UHnxWMQcYYzfpIMrsJ9YecX/XxTPyRTCQpQQhdBjYwH88kohLEQVhgqGiodHtbgtS7yY2JGUyosvF1EhMJsFS8AufqINzyw+0jD/GPvEo6IvGHaxQspWXrT7ZNOLlweERdGfC28Mz4rKK9qzjG8t32eiOwZtPoTzqBS3j4+WRfGcTCEsRE0NM4DwWE6+MBqAPIaLTfzmuFjym/SzzsSLjCTAEybP41RB5BWP1nF0QoQ2LvKYNrHx2TyqoMfG7lK2PM8Uv7xSCAtRjYfKa4+wmsCFigcHsZ2KCouOrYvEczKFsBA1NVTyVDocA+1vVFIQPUyGT8FGExUZ/LGJSpwGd9rtLjVRAdLOGCvnOCyKN5vRyySeKZJmRVvKURNpet41In1+eaUQFqJESTwnUwgLUVPDSAO8RSqmK01xFtls5UXYp03xMZzKC284dsDF8wQ8LCZuzD6eM/U2bzWPMDHDrr4i1Qz02FgAv7xSCAtRoiSekymEhaiFER+f60SPjd1FlVdHyM6KAZ6TKYSFqF6hclSepuddI9Lnl1cKYSFKFIRB3veb6NYBnpMphIUoUZEiLxTK9ktrEnpsLIBfXimESaX1a5bjeNys4a0r7VdnmWjf4m0j7WO0YWXbxOhHB4TzRjd+6GTezPoC5BN5vLjgYyuTPmNHfzxmHhHzZx7leWr88kohLESJgtTlefG2lcqLBnveqtLrflLlRRiN8YRTcdG4vwhmfcxUXrxB5U1pnCopQpcXfjOCghcbrDNKgHzgRQaVHm9UeWlBvz664vB2lf1ku47QB5BP8J1tYh/kK5Uw2wFh2XW6o0T4TZcguqrEzs5lYV9NphHp88srhbAQJQpSR5tX7PzLW0IepeiIy/CfLkPlFeH4yVP6vdFHj8orflOU8FhBsx7fwlLJU/HEt610IznDFCsjiOeJyovKjrex7zRhg4dLfHadyit+DDluG5dV0GNjAfzySiEsRImSeE6mEBaiesWsL8BXmMhHKhW8qrhO5UHl9SoTFRKjJBgHS6W1vy8R879lvSa6odAxN54bvDbWo6jsUPTYgPDsehxbS/87fseKMi67CsdaO355pRAWokRJPCdTCAtRvaIpx1y0IskOTOfRr06aXl4akT6/vFIIC1GiJJ6TKYSFqFLQphaHUDGCgFk2aL+Cy008wpxnYhwmnUwZUsRjE0OrgN73rOMh4JWcaWIKnXNMeCjRjnm/ZkU85qxEcfTYWAC/vFIIC1GiJJ6TKYSFqFLwNSUeiWLDPG8VY+XFY0ucbytOM3SsabzyYlsqLsSc/uyDoUDMvhHt3urLyvhhj+BRohs04nx60UohLESJknhOphAWokqBRxX7N2UfbYDZMKjQgBky4iBytlkO3rTFIUQzxQ97BI8SxWh6fjUifV60UggLUaIknpMphIWoTnKfaaSNyA97BI+aB/Tt2svE/6AxnUdnHpHp8sBvZpIljsdtpk2iAZ43sweZsl0jxhvleYPLOp4vj+sM/H+WiYZ9umsQzj7j28tZosfGAnjRSiEsRImSeE6mEGaicyUdRsd1yBKiG8C4Dl5CXIiTRH+mcdHBc5KesIR4mzcu5keLop8Ux/dLE+1vi668PuhLpv6J/yc20vP2EeIjNZ/H483kJcmv1D5WXtnuEFRKzOhBJcV2a0xxO7pQEE5XC2z6xjzPZ2G8aKUQFqJESTwnUwgLUZ3kP00c3/eTX4Yf9ggeNQ/oNkEFwjTi9Huj4ortgLHyoiJCVEBAZ93xrhHjnhfEyguYkgiPDc+N7Qlnn7McBJ9NT1QTaUS6vGilEBaiREk8J1MIC1GdhMprBD/sETyqLvCcIjwq8mjZpK4RCZ5VI3hU02hEujyLUggLUaIknpMphIWofuCHPYJHiRw8q0bwqKbRiHR5FqUQFqJESTwnUwgLUf3AD3sEjxIp48PKVHlNiWdRCmEhSpTEczKFsBDVD/ywR/AokTI+oF+V15R4FqUQFqJESTwnUwgLUf3AD3sEC+b1f8wLaVRMpaTKa0o8i1IIC1GiJJ6TKYSFqH7ghz2CR4kUeV4V8SxKISxEiZJ4TqYQFqL6gR/2CB4lUtTmVRHPohTCQpQoiedkCmEhqh/4YY/gUSIHz6oRPKppNCJdnkUphIUoURLPyRTCQlQ/8MMewaNEDp5VI3hU02hEujyLUggLUaIknpMphIWofuCHPYJHiRw8q0bwqKbRiHR5FqUQFqJESTwnUwgLUf3AD3sEjxI5eFaN4FFNoxHp8ixKISxEiZJ4TqYQFqL6gR/2CB4lcvCsGsGjmkYj0uVZlEJYiBIl8ZxMISxE9QM/7BE8SuTgWTWCRzWNRqTLsyiFsBAlSuI5mUJYiOoHftgjeJTIwbNqBI9qGo1Il2dRCmEhSpTEczKFsBDVD/ywR/AokYNn1Qge1TQakS7PohTCQpQoiedkCmEhqh/4YY/gUSIHz6oRPKppNCJdnkUphIUoURLPyRTCQlQ/8MMewaNEDp5VI3hU02hEujyLUggLUaIknpMphIWofuCHPYJHZdlkeEzf8awawaOaRiPS5VmUQliIEiXxnEwhLET1Az/sETwKGIjMgGQGJosMnlUjeFTTaES6PItSCAtRoiSekymEhah+4Ic9gkcx9Us2P+I0OdD79UmE6MbRiHR5FqUQFqJESTwnUwgLUf3AD3sEjwJ5XkvgWTWCRzWNRqTLsyiFsBAlSuI5mUJYiOoHftgjeFQWtXmN4Vk1gkc1jUaky7MohbAQJUriOZlCWIjqB37YI3iUyMGzagSPahqNSJdnUQphIUqUxHMyhbAQ1Q/8sEfwqKJsllEfaXp5aUT6vGilEBaiREk8J1MIC1H9wA97BI8qyqdNq1wfJaBn0IDfZBpRnr1opRAWokRJPCdTCAtR/cAPewSPKgqVV4TKiy9Y86FYvlC9l+mhJvYZ7T5lil+ufqWJuK1MH/N1uM7Efh5sIuxI034mvoQdOcfEvq8xvdoUbS80Af8/fkH7ClNcB/a9i+ls0+sI6DAxT2vFi1YKYSFKlMRzMoWwENUP/LBH8KiijFdecXs+5f+ksJqErTYdZOKT/68w8Xl+Ki8+yc8LAYTdWaZYeVEBYfd2U7SJfMKXVF68FX2xie2pvNgH61RYrH/d1x9vusXEvgGbLcNqadhHk2lE+rxopRAWokRJPCdTCAtR/cAPewSPKgqeVITK6wgTFddJpriv8WWESuxMExXK40wxPlZeQOW1uYlKLut5YRv1IhMVFP93kud1uYl1wj5vYt/xEXc8TdOix8YCeNFKISxEiZJ4TqYQFqL6gR/2CB41a/CMnh9WZwJtbHCgL8VkGlGevWilEBaiREk8J1MIC1H9wA97BI8SxWh6fjUifV60UggLUaIknpMphIWofuCHPYJHiWLosbEAXrRSCAtRoiSekymEhah+4Ic9gkeJbtCI8+lFK4WwECVK4jmZQliI6gd+2CN41CyhIf0xpkeaXm863bSj6TkmujucZnqyiS4ULB9kooEeaNDnzeJOJsKfa4LDTDS8Y/9FE435vDnkf+1qohH/y6Y9TLxlnBdNLy+NSJ8XrRTCQpQoiedkCmEhqh/4YY/gUbMkdnHYxxS7JjzR9LSwmlRe8Me+vMR0nom3jFQ+9NOi8tpousoEVE701aLyIs28sQS2gxtMhLENbz7nhR4bC+BFK4WwECVK4jmZQliI6gd+2CN41CzBM6KbAuBRRa8qW3kRFrtHxE6s8XygY0x4XnhrELtoRM9raxPdHxD72s7EdqxTafaVeZzPqfGilUJYiBIl8ZxMISxE9QM/7BE8apFEzwt2M/HoByf6Etb6smk0vbw0In1etFIIC1GiJJ6TKYSFqH7ghz2CR4li6LGxAF60UggLUaIknpMphIWofuCHPYJHiW7QiPPpRSuFsBAlSuI5mUJYiOoHftgjeJQoRtPzqxHp86KVQliIEiXxnEwhLET1Az/sETxKFEOPjQXwopVCWIgSJfGcTCEsRPUDP+wRPEp0g0acTy9aKYSFKFESz8kUwkJUP/DDHsGjRDGanl+NSJ8XrRTCQpQoiedkCmEhaoR3+LJz+GGP4FGiGHpsLIAXrRTCQpQoiedkCmEhKoEpXO4xxYnvOocf9ggeJbpBI86nF60UwkKUKInnZAphIWrko6u/IcBgrBzfMQTW7w6ryXrsNc76nWE1Wb8trCbrsZc56z8Jq8l67JTJ+n+E1WQ9Dnlh/V/DarL+3bCarH8rrCbrsYc66zeF1WT9f4XVZD32Xmf9y37YI4RoUZCm51cj0udFK4WwECVK4jmZQliISmAQ8B2m/zv51UH8sEfwKFEMPTYWwItWCmEhSpTEczKFsBA1wht92Tn8sEfwKNENGnE+vWilEBaiREk8J1MIC1H9wA97BI8SxWh6fjUifV60UggLUaIknpMphIWoXLYwMR9V6/HDHsGjRDH02FgAL1ophIUoURLPyRTCQtSSPM/ENCxMwRIb4NtMPOasRHdoxPn0yyuFsBAlSuI5mUJYiFqSbPz5pnUm3vIxI2hcYvNBE9O78BZy/KOoO5gI53NczDt1mekQ0/ambIW4qA+rLnfMYmmanneNSJ9fXimEhShREs/JFMJC1JLEbg0Qux3wzUCIXRXYB5UXMCvo+EdRzzDFiud60xoTk+1RycR9QFM+rCqWRo+NBfDLK4WwECVK4jmZQliIyiXaPTr5tXTlhXeFRzT+UVQqLmb8jJ4S86/zNWn6Xn2GACf+HzTPD6s2/QIU5Vnu3C8Ev7xSCAtRoiSekymEhajKRM+rCov6sKrKUXmanneNSJ9fXimEhShREs/JFMJClBCF0GNjAfzySiEsRImSeE6mEBaieoUeG7uLKq+O4jmZQliI6hUqR+Vpet41In1+eaUQFqJESTwnUwgLUYWhOwSf8Mq2cdFQTzcF+oTx/UDeAD7WRLcHPt21jek6E98T5Ks4jzN9zAR/Z3pVWE0+0AoHmFi/2EQcaXyXiW1Z520i3hM2p5j432Ix6LGxAH55pRAWokRJPCdTCAtRhYkfSt3LxEdSgQoL6LdFh1aIH16N3yqM4bFrw6eTX6HyiV+F5tuEdIOg8nq76QhTrLxiOqko/9T0ThOVWJkyocfG7lKmPMwcv7xSCAtRoiSekymEhaipYJts/y8qmu+ZVprospDdZ6y8qLBi+FtMvFmkm0NMwytNWc+LOIiVF/A/2A+iEiOcCjR2kShK3J+YnqbnXSPS55dXCmEhSpTEczKFsBA1d/C4IlQ8kP0sPRWWaD56bCyAX14phIUoURLPyRTCQlSv0GNjd1Hl1VE8J1MIC1G9QuWoPE3Pu0akzy+vFMJClCiJ52QKYSFKiELosbEAfnmlEBaiREliHo6rb+ixsbs0ojx7lZVCWIgSohIqR+Vpet6p8hJCTESPjQXwKiuFsBAlRCX02NhdVHmJTqNyVJ6m550qLyHERPTYWACvslIIC1FCVEKPjd1FlZfoNCpH5Wl63qnyEkJMRI+NBfAqK4WwECVEJfTY2F1UeYlOo3JUnqbnnSovsSzM57WfLyfBnF1MLCi6hR4bC+BVVgphIUo0AD4am10yzTMzqfJFbCo0zhXTM/P74R52kelhJvii6eUmZmblu4vwBybm9WJfTBN9ponvN3LBsD4r9NjYXVR5iWWJH56NSyocKqsHmZjp9NumzUzrTITzG+1tAqaB5vP+zzbFL3FTcWUrr8NMVF4vMPGR2lmhclSepuedKi9RiD19mWVbXwKeGDA9NFCxUaFtkfwaJe8jGkz1PGkbsXj02FgAr7JSCAtRoiQxD8fVN/TY2F0aUZ69ykohLESJknhOphAWogpxvC/bjspReZqed41In19eKYSFKFESz8kUwkLUCFeaaJ861Je0O/E1HxrZgTC+5PNl066mR5keYXqP6TTTOHzS7BrTn5nYLu6X/0PbF+1mnzABnzuL+4/7ol2M9deYHkmAcZmJ7zp+w0TYZ0ykQcwXPTYWwC+vFMJClCiJ52QKYSFqE2g0ByooKpJYufDBWBrQCadCoxLhA7OxoZ2KjuVjTBG2gbgP7OP++VAt29KQHz+TxufOqNTYF5XTRtOLTXzjkW1jmgkDwmjgPz35tTx6bOwujagj/PJKISxEiZJ4TqYQFqI2gcpla9MVJiqpt5rwvJ5lolGeyituS+VBBccnzahw6PqQ9YLwpAjju4x81xFi5cW+eTsJdKc4zoQ9+2ZfQOXF/qnk+F/AG0oqOLYlDM+raHcKlaPyND3vGpE+v7xSCAtRoiSekymEhaiZEL+gPQ2xHY2KZ40pvq3kraRoHnpsLIBfXimEhShREs/JFMJMtB3VqX82LRI9NnYXVV4dxXMyhbAQVSuf8+WiUDkqT9PzrhHp88srhbAQJUriOZlCWIiqlUVXXqI8emwsgF9eKYSFKFESz8kUwkJUrSy68tJjY3dR5dVRPCdTCAtRtaLHxvbQ9LxrRPr88kohLESJknhOphAWompFj43tQY+NBfDLK4WwECVK4jmZQliIqhU9NopZocqro3hOphAWompFj43toel514j0+eWVQliIEiXxnEwhLETVih4b24MeGwvgl1cKYSFKlMRzMoWwEFUremwUs0KVV0fxnEwhLETVih4b20PT864R6fPLK4WwECVK4jmZQliIqhU9NrYHPTYWwC+vFMJClCiJ52QKYSFqyGpfLhI9NopZocqro3hOphAWopJK6z7TPcmvxaLHxvbQ9LxrRPr88kohLESJknhOphBmYm6tuF6H/t4k2oEeGwvgl1cKYSFKlMRzMoWwEFWr57Vo9NjYXVR5dRTPyRTCQtSQOtq8Fo3KUXmanneNSJ9fXimEhShREs/JFMJClBCF0GNjAfzySiEsRImSeE6mEBaieoUeG7uLKq+O4jmZQliI6hUqR+Vpet41In1+eaUQFqJESTwnUwgLUUIUQo+NBfDLK4WwECVK4jmZQliI6hV6bOwuqrw6iudkCmEhqleoHJWn6XnXiPT55ZVCWIgSJfGcTCEsRAlRCD02FsAvrxTCQpQoSczDcfUNPTZ2l0aUZ6+yUggLUUJUQuWoPE3PO1VeQoiJ6LGxAF5lpRAWooSohB4bu4sqL9FpVI7K0/S8U+UlhJiIHhsL4FVWCmEhSohK6LGxu6jyEp1G5ag8Tc87VV5CiInosbEAXmWlEBaihKiEHhu7iyov0WlUjsrT9LxT5SWEmIgeGwvgVVYKYSFKiErosbG7qPISnUblqDxNzztVXkKIieixsQBeZaUQFqKEqIQeG7uLKi/RaVSOytP0vFPlJYSYiB4bC+BVVgphIUqISuixsbuo8hKdRuWoPE3PO1VeQoiJ6LGxAF5lpRAWooSohB4bu4sqL9FpVI7K0/S8U+UlhJiIHhsL4FVWCmEhSohK6LGxuzSj8lpCQlRF5ag8Tc87nVshxET02ChEjeixsbuo8hKdRgW8PHpsFEK0Ej02ClEjemzsLqq8RKdRAS+PHhuFEK1Ej41C1IgeG7uLKi/RaVTAy6PHRiFEK9FjoxA1osfG7qLKS3QaFfDy6LFRCNFK9NgoRI3osbG7qPISnUYFvDx6bBRCtBI9NgpRI3ps7C6qvESnUQEvjx4bhRCtRI+NQtSIHhu7iyov0WlUwMujx0YhRCvRY6MQNaLHxu6iykt0GhXw8uixUQjRSvTYKESN6LGxu6jyEp1GBbw8emwUQrQSPTYKUSN6bOwuqrxEp1EBL48eG4UQrUSPjULUiB4bu4sqL9FpVMDLo8dGIUQr0WOjEELMAVVeQohWospLCNFKVHkJIVqJKi8hRCtR5SWEaCWqvIQQrUSVlxCilajyEkK0ElVeQohWklRe/JEkSWqbwh8hhBBCCDFXhj6XnC8hhBBCiPkj50sIIYQQYoHI+RJCCCGEWCByvjI8Y/Xq1bcee+yxv7j++usHt9122wBYfvKTnxwQTjx2wVyIWthuxx13fM3OO+/8b9ttt92vjjvuuNvf9773Db70pS8NfvjDHw7uu+++pNz+5je/ScruTTfdNLjqqqsGZ5999i/32WefO1auXPmLPfbY40rbz+PC7kQH2Mr0TtPtprMIEEI0Gjlfxv6mwVe+8pXkprUc2GHv2wkxd8zJOmPVqlW/OPXUU2+75ZZbvCRW54ILLrjb9nvP3nvv/SH/V6I9PMb0D6avmf6AACFEa+i987XnypUrQ1PBlLAd24fdCDFzdl63bt3/OfHEE2/1IjdXLrnkkvu32GKL35iO8/8vmsW2preYs3z3jjvueCfO+Oabb/6bzTbb7Hcs7feda9as+dbatWtxpE92eyFEM+m98/W6V7/61b/1+89UsB3bh90IMTvM6frWueeee7sXtYXyuc99bsAN3ZJxWEiNqInH77bbbv+0++67//zd7373A3fddZefocHg2muvHRx88MGJWJ8E9hdddNF9bL9+/fp/Yn9ht0JMBQ0Mp2+//fZX7bTTTt9ZuXLlz3lIs7ABS34TTjx2bi+Wp/fO12n05fL6airYju3DboSoznbbbXf63nvvfYcXsVp58YtffMdee+31WU+aWBB77rnnFw466KCfff/73/czsTxFnDH296QnPelWO6ef938lxCTOWr169c+OOOKIn3/84x/30jMdbMf27If9hd2KMXrvfK0wr/0zF154oRebYmDPdr4LIfIodG3ZTfGvTzrppDDKoyF87GMfG+y8887f9ySKObLHHnt8+c///M8Xcv6f/exn37p+/fob/V8LQYvVgIE784D9sn//PyIg58s5jT5cjHLMg3jv66UWL1GUZa+trbba6syjjjrqZ17MGsWVV1452G233b7uSRWz50hGrcbR1YuC/8f/5f+HZIge8tp999335z/60Y+8VMwX/g//j/8b/n2vkfM1gY32tP/PdkO8x9YHtryb34QnsUJMx3LX1kr6WMUpIprI0UcffZul89khuWKGnLz//vvX2trJ/996661P8fSIfsA0M4Ovfe1rXgoWC/+X/+/p6CtyvpZB+SKqkluGttxyy5c973nP+5XXSyOsX79+cMcddwz+67/+a7DffvsNPvCBD3jMYmEOMXsA+Y4nWcyGfVavXn2PZ3GtWDruJj0hWaLjnPXkJz/5Tj/1ufzud7+bqCx5cctBOkhPSFbvkPO1DMoXUZXcMrRmzZrrebU3CZwvZDfHwb//+797aHgVeMEFFyTrhxxySNKcf/zxxw9uvvnmxEHD/r3vfe/gbW972+CNb3xjYkf4G97whiQcAcuLL744WWfbE044IVkf59e//vVg8803Z3SvmBHr1q37x8suu2zwwAMPDA488MDBm970psG3v/3twdVXXz3YZZddBrffvrjBrqRj7dq1n/Kkie5yOh3h/bQvy9FHHz14z3veM/jVr3411D33pM8Lb37zmwdnnXXWMO7MM88c/MVf/IXHFoP0kK6QvF4h52sZlC+iKrllyG60n8xzvmj54ony6U9/+uCtb31rEn7eeecNbrjhhmQ963xt2LBh8D//5/8cOlivf/3rB+9///sTu69+9auD6667Ts5XQ6Bbw5133jn44Ac/OHjVq17lOT3KkUcemUz9Aaeccsrgs5/9bHJDxFmCk08+efCJT3xi6HhTTnDcuBEW3RZIh3ezEN1lz1WrVt2bnPCCUF5ocafuOfbYYwcvfOELB9/85jc9Nhm4MXjXu97lvwaDjRs3Tu18AekifSGZvUHO1zIoX0RVcsvQypUrX37GGWcUnu7k3nvvHdx///3+a3l++9vfDv7zP/8z+dxQWXjtuGbNmu96ksVsSPL2xz/+cdJS+a//+q/Jb14x40DxqaiDDjpo8K1vfSsJ/9CHPpQ4WNwQ/+Ef/iEJ42bIiNTofMFznvOcwf/4H/+j8LYR0hOSJboI83BNO5qR8nLppZf6r4DtavCpT30qcfQpt9l+Y2WdL9Ll84T1ieH1pgtvMsoXUZXlylDjO9w/7WlPY74edbifITvuuOMP+O5mhNbF//iP/xh5rQM42j/96U/9V7ghfve73x385Cc/WbaPTdFtSQfp8aSJDsJkqNOOajzmmGMSZyuKlvhLLrkkeWDIho8rdokoCukifbZtnyCvEoYrYgTli6jKsmVo2223Pfuoo45ayGeEpoVXorvvvrummpgxO+ywwzknnnhiLV8xGMfScduqVate4kkT3cTPdnXoCsFr60n87d/+7fB19jSQvpDM3jA8XjkZk1G+iKoUKkMbNmy42G6CjZrrS5Oszpd169Z98+qrr55uiNiM+chHPjKwdNzsSRIdpUzL16JQy5eYhPJFLIxddtnl+XvvvXcjWkM2btx4+0Mf+tDPedLEnFi7du33Lr/88gc82xfK3//9399v//9fPCmiw5Tp87Uo1OdLTEL5IhYOH9Y+55xzapl8Ux/WXjwbNmy49LDDDks7Zy2Aww8//NaHP/zhf+tJEN1n6tGOi0KjHcUklC+iLnbGCTvxxBMXclO2p897tthii99st912J/j/F4tli9133/2mU089da7n+0/+5E/4ruNN/L/wb0WPmGqer0Wgeb7kZCyF8kXUzi677HKmPR3+4pRTTvnZLbfc4tVWdc4///xf2n7v2bBhw5X+r0QDsPNx4VZbbXX/O9/5zrv9VFXiHe94x13sb5999nmX/wvRXwrPcD9vSAfpCcnqHXK+lkH5IprGdrvuuuvrdt5551v4MPKznvWs2+gzwVxczA0Vp6xgXi8+nsw0AldddRUzUf/Cbr53rFy58hd77bXXh20/ff6uWps4Yv369Z/lVfChhx5629vf/vb7vvCFLyTnOs73xpLfhF9wwQUPmN3PsN9jjz3os3dE2I0QQ/Rtx/qR85UDH9OmRYClEE1m/PrdzJei+6juFmV57b777ruwUZD8H/4f/zf8+14j52sCZ5qiwxXzhd+EC9FE3uRL0T907kVV6HOVjDqcB+yX/fv/EQE5X2OMO1nZii3rlAkhhBBd46zVq1f/jI7wH//4x919mg62Y3v2w/7CbsUYcr6caRwrtYKJpqGHp/6icy/KQuMC5WfRUmttyIeE4UoPyXOmlsoXtYKJJqHKrL/o3Is66LPPMAt67XwVcaCWq9jUCiaEEEKIaeit8zVLp0mtYKJu9BTaX3TuRR2oxbUavXO+pnWUpskXtYKJulBF2F907kUdyOmvRq+crzLO0bQVm1rBhBBCCJFHL5yvOhwitYKJRaKn0P6icy/qQC2u1eiF81UF5YtoA6oI+4vOvagD3RurIedrGVSxCSGEEGKWyPkSogPo+u0vOveiDtQwUQ05X8ugfBFtQBVhf9G5F3Wge2M1WuN8Pc/0vbA6wjWmd4XVuaCKTQghhBCzpFPO1xEmbDiWH5pONQHbvjWsJvyZ6Z1hdcV60xdNbHOX6e2mzU3wGNPXx3Ss6fGmz5jGGQ9/nIl9A2l4W1hNeJmJ/W1pGo97s+kG0/bJLyGWp+nXr5gfOveiDtQwUY3hddv0CxgHhTR+bEw/NeF8bWY6zrTa9acm7LczvcT0eVPklabrw+qKp5j2Nm1lwtlim2NMgDOXzZevmp5jOtxE+FEmbPYwAeE4cLu6/sh/wxtMHw2riWOFk8Y+HmyKcRRm7B9tEmIaVBH2F517UQfZe6OYnmH+NT0jl2v5eqSJY3i6CUfqEf4b5wv4/ULTG02fMEXnC2fn9aZohzMXna8zTP8WVhOyzld0qgBnjlasGL6N62n+G3CwcLpokTvBFB296HxxbCd5GP9DCCGEEN1k6HMNVxrKcs4Xzg7OEc4O+jtf0jo2Ds4SDhiwLceOU/RlE68J2e5DvsRpi0Tn6zAT20R92/QEE+FsEznUFH/j4GH78ORXaN3iN84XcVebIu8z4QSuTX4JsTyUJdFPdO5FHajFtRrD61YX8GSUL6INqCLsLzr3og50b6yGnK9l6EPFRqf/95goA1G3mA4yCSGEEGK2yPkSK55velFYHXK8iVex8CDTpSZeoVJO6C+3gwn+xpQdDYrou0YfOtYvNLENr1GfbYItTPRzI4x9fsC0ygTbmq40sQ3/n0EL44yPDj3dxChVyBu92mV0/fYXnXtRB2pxrcbwuu3SBYxjcJWJmy83cKZ1YDTkJaZxR4EweLJpPC522n+oidGSrNO/K3bIh9NM49vF0Y84NDgYbPcNE1NPNBn6o+FYReeFvmfAYIYnmnCaODb6vkVn50umF4TVBLZlYMNOJvZxpClCHpAnjPSkn1sER49zxf7Z5vdNgNP0V6Z9kl8pOG6kM44qPd9E3z/IG73aZVQR9hede1EH1K2iPMP860pG8gqNY6Hze+QiE85YhFdsKAtOFI5EhH3gLNEqw3q28ztORGzFwRGgcz/QeoPtw0w7mxh5CWtMf21iuybyQdOzwuqQrU0cC9NpkHcMUNjdBFeYijpfzH0WwYEljoEN2ZY2HDRsmdeMZRyUALTKxf8bIc+vM8VRpcyLFp0vnLilRq8KIYQQTYB7XcJwpeVwM+ZYHpv8CjC9RHbU4yTni9GG3NQj7APni1GMrPM6C4cK4SzE1hhekZ0XVkecL16N0eq2v4kWHF6NNdX5wulhGgzSHkWfrz8wQZwCgzCOCeeL37SG4WydaYpEBys6X3HSW3SBCXi1mP1/N5v2MsGTTDhQscVw/HUojI8Ofa0pOl9LjV6lVa3LcMyin+jcizpQi2s1htdtly7gR5lwFDgmxI2alpzIuPMVb/RLKc7XFX+/2gRsh0MV9511vnhlGZ0IlhebiNto6gPR+YqvYMV8UUXYX3TuRR1Qv4vyDPOvzxl5jomWrSy8vqQlLNuxWwghhBCiKnK+hOgAun77i869qAO1uFZDztcydCFf8j74nTeNRBb6sI2P6oyd7pmtn/5VbE//rdhXDJYaDUon/ueaIqwTxv9Z6iPoS406LftBc+C7nxw7YuAB/dHaiCrC/qJzL+pAPkM1hvmnjJxMFyq2vA9+500jkYVXsPHD4PA6E53cmaKDsvMQUwTHiFGKsNRoUAYisL6Li/X9TEt9BP1AEzaTRp2W/aA5IzgZCRthdCp99IQQQoh5wn0oYbjSYwZFwC6Yt4a8D37nTSORZSnni5Gf7Cu2JAGtYHFgwVKjQYFRioxCRa8gwJn0EfS8UadlP2hOOCMw4/5IV5wepG20rUyK2aFzL+pALa7VGF63uoAtD4qAXTBvDXkf/M6bRiJL3vQOx5livqBzTZA3GjTCa0pa25Yi+xH0pUadlv2gOY4a84XF/dFit8HURlQR9hede1EH1JmiPMP8U0ZaHhQBu2AuKsBrxMtMOElxQlTRTHYzMZEtLZ9v8d9CCCHKI+crg7tX+WAXzIVoDPMqk68x8eo2C78J55UyLZe0GNLCSYsjyyjigHUGQNC6yrQu8FIT2zEJb5xIFzv65NHn71gCDF5hA4MoiFtnmrRthNfQ7Ic45taDpf5XVF46GfDBdug5BBinmviNHYNLSBOtt2zPkj6Mi0T1kagDtbhWY3jd6gK2PCgCdsFciMYwr4qQyYgZsZqF33GS4gNMvLqNZAcsxPXsK2FscaRw3nCscKhwZAA74vnN628gDMVX2TBp2ywM3CAcZ4i+iJPsi6Tzj03xlTfQN5HX9NmvZQB9FD9lwmnEIcNmkegmKOpA98FqyPnK4O5VPtgFcyFqwUtiPtgF88oweIL+gDgvLF9sihRxvkgHjhBTfPD5J/oA0hKFg8WgB+wYNYvzw//AUeKVNMR9MFCC/83XKyZtG8HxIZ794Awxdcgk+7hfiOvj6QT6DNIyhmILII7np03YPtPEiFvWccpoOcs6bEIIMYlh/TyrirrN+G0rH+yC+VzgSZ2nc+beYoQf/Wy4GdBBnP/LjY8Kn+kU+M3NL472A+zYnjjCmRuLdV63/L6JG9FfmbLbPMOEDU/6wP/m5sUTPaP/iBvvgA+XmEgb32OkAz52jBq83MTNivBTTITzGon9kXZGGHLDYx2xDTbcwH7PxFxc/GYaDJ7q46snYD3eBEk3N2T2wYfB2YZWlZhXdK4H8pTf5BXbxlGbvKIiHLFNNu4vTeRP3MdSx0Q+ss4Nnddu3ODfZ5onXhLzwS6Y106cc63ptCWd4zTlPIt+oRbXagyvW13Azbip8eQ+6VVKnkMRHSmmiyAMB4TfhOMIZL9jGYlOA+JVCSP/IkeZcNKIw7lhGSc0jdDpmnDm1coS05ANf4Ep60Ax5UP2GON3IPdOfgWYAoPO3YAtrQso9s8BprDALsI+ss7XuLLOF44bDuBBJuKi8xVtcbYieceUzcconMd54iUxH+yCueg4ugmKOlD9Uo1h/ikjm3FTW2Ni/3+Y/AotSjhCyzlfrONwxdnpo/NFyxXrOEvMZk/fFF6pEEc44LCwPROcxv/DtA5woonfOCvj0FJFCxHQ6oMdDgotCExDweslpm7AyTnbFFnK+eLVEMcVJ25l5nqgBYzfKDpo/B/ST4doOjwj4kk3/5f1pVq+WOe1EWTn/cq2fJ1pIpyWLljqmGI+sv1KU5y6Y7VpXnhJzAe7YC6EEKJhDOtnVdTNuqnhRDE3FTf1WYDzxSvIzZJfy8NkpnuG1RWbm5ZyJnBGeJ04/lke/s9epkmfKhonOl/8P+YAm7QNo8hobYrg/ETHKILzw37mNdpsmmOaJ14S88EumC+Ex5pi3y+cXPo/4SDj0AIjBf86rA7BBluIHfE5z7xup8zRdwpnmnLLQwPQysPrcVo9GZG4lYmysK8ptq7SUsk688oRxwMNZYMWXsopYZG4HpfMZYczzfHQZ4xWYCA8+9msJrHI8yxERC2u1Rhet7qAm3lT6wM4cLS6TXLw6GBNp2duzCLgJTEf7IL5QpjkfNE3Lk73wAjJuB6Z5HzxWpm+eMC3NpnAl1fe5xNgROcLcLDom0irK9CyS59BHCbicLR4bc4DDM4cr7FxwiY5XzhctOTS/5B0cTw4grH1lBbWmNamoZugqAPdB6sxzD9lZDNvakKM4yUxH+yCea3Q+kTLE2T7FeaBsxS3wWnKfjc0Cx9jjy1reeDUbx9Wp4a0LHreLiFE9xnWz3Io2nVTE/3FS2I+2AVz0XF0nkUdqMW1GsPrVhewbmqiGdxr+rWJKUEmvYr1kpgPdsFcdBzdBEUdqH6pxjD/lJG6qYnmcLsplrX7TfeZojPmJTEf7ExN53QT/bzobxU7zPOhdEb4Eh5nuqe/GAM7gKlTmMV+uTBgpCxxx5uy+2KePLEYXmGK5RHRv+7tpqJQ5un3SV88Bk1wLoVoO8P6uQ0V9bzx21Y+2AVzIebGbaZY1rrsfP2NKc5QHzu/M3ntl0x0pudGzUhdbrxMT4KTRhid85cKYzsmu2UCYPYdBwLg1JEnhyS/ukPTz/MrTdn5+LYwca6fYqIvHk4208FkebmJ0c2MdMWWckKZuNAU++8xuTLOGMfP+Y4ffGdkLI424Qy4YLodYKoYBmQAYTj7jK5mrj/KEfbsL07zMw7/m7RGxYEfzzORRrZnkEacDif7/xjJHR8ulgqPx5wl5g+Dkq43xW+TMoCFYx7Pt0WiFtdqDK/b4UqP8dtWPtgFcyHmQl9eO77NRBpxkhDrfMGBUY7cQJmLjRsPH8bGqYqjDbl5RUdrUhj74kbN9txYieOmhhPGdCHse/wm12aafhPE+cIpobWROf74TifOMnPixWlmOEdM5/FmE1O54OjQ2sWgCs5nhFZN7NkP5ziCE0U45xeH6whTBMeIckBZwgnEbn9ThBGwtKaRTubzw24SpCM67jh3ce5CnD6cIdKL8/ZOE7Af7BgUQmsr/xeWCueYcQKZa5BrgFG+MX8YyQvY8HualsN5EdMtyjHMP2Wk5UERsAvmQtSCl8R8sAvmjYVRhPGmAoyG3DGsig6BU4NzhZPD6FdeBePI4KyMOxeEYRudL2xx1NaagMmPaSliDkS2YwnYxs9D4XxdFFaTiZqxiy1ItH7ipBPGJ8mYjoT1+PWKt5omOV/MKYgTF+dJjM4XDlKcMJo550hD1vni/0FMLywVHo8ZcEA5bqZNIZ78iRNZ4yiy7FoLbt+I5z1d6TF+28oHu2AuRC14ScwHu2AuOk4fzjPOCK8gx1+z4dDx6o4pSSI4X7zWw36paUrGyU6ezENA9v/QqsY+x8EJxAHCMeKrF6QFcDD7gF47VmN43aqi1k1NtAMviflgF8wXCjcwXuvx+oUWDG5MTFBK6wBipnue4OmnFTvVX2l6vonXhNjQKsIXFpjhPk64SqsAr5J4zch2bI8tN01e+SD4UxPfAM2GvcbE653Y+R5I02UmWjz4v+yTJZOssh1p4Devf+hv02R0ExzliaaiTpcoj+6D1RjmnzKy2Tc1ISJeEvPBLpgvlDhTfYSZ4nGiIvTJIgywjX22+FwQHZeBMOzouExfIT4xRIdrYNb8V4XVxDmiVYJOyLwSwiFjudHD6D9GvyC2if+XVznkCzdoIDymN/YZY1ucMTo0Y8soyqbhZzkf7IK5EKJhDK9NXaSq0EQ78JKYD3bBfKHwOSgcFzoN821EZoinHwstXCg7I/2484XjFFvNaKUCWsR45cNrJT41xDGxf1qmWKd1DWfphSZgGZ0vWsbohxOdOZwv7IHWLRw7vgkZHS2WOHxsSxoYNYlDN/4N0SbgZzkf7IK5EDNHLa7VGF6bukhVoYl24CUxH+yCeSug1Wt8/iY6V+MgxU8N0Tk6+wF3Oj/zEe0u8ZemODVCHn6W88EumLeOV5topURMwQA49vSz4phw5BnBiGMcHfsoXieTh0zNgPOMPSMpeRXJx9jpVB9h/WVhNXm1nd1PnEoCh325KSNYsg2tp4ebeF0N9APjQYRRnJRXHj54yOC4GBTAwwn28X/yUPE6Uxtoa9lqCsP8U0ZaHhQBu2AuRC14ScwHu2AuWsTBpl+ZOHe/NOE8THLG/Czng10wbxU4QdkWUkYE0vePY8n2v8OJOTCsJq+mcVwitGxmp6Kgjx+tqjhAtGoyihCxHkcwsv2kqSRwipaaMoJRi/QpZAoLWlqZV475x2LfxctNcTDAX5uyx0X/R17Jx/nKzjC91oRjts4kus3w2mzjRTprvMrKB7tgLkQteEnMBzsTN6CoG6cQT/dF9ZUp9P9MIVq9iuqfptDXphA30KL6X1Pon3P0nybmeovnEOGQ4YhF/Czng10wbxW8OuaVL5OxMkUEzgjzcvH6OQ6iiBPmbpf8mux8Eb+HCeeH187xNRn9BGOrGgM2YKmpJCA6WTA+ZQTrDPKArPPF9ca+2A/XCCMocbbYhhY4BqLQZ5FX8tjHaTLYhv6N5ye/mo1eO1ZjeG0OV3qMV1n5YBfMhagFL4n5YBfMRYvgVStfM+DzUt838fmlSfhZzge7YN5KmCpifN43poAgnNd1eeB88dqR19TRAcuCcxedpuWmkpg1HFOct6wteInKB7tgLgowzCtlmgqYaAdeEvPBLpiLFvFoXy6Hn+V8sAvmvQPnZlJe0geLiVHjpKqiGF6i8sEumIsCDPNKmaYCJtqBl8R8sAvmooP4Wc4Hu2AuRCW8ROWDXTAXBRjmlTJNBUy0Ay+J+WAXzEUH8bOcD3bBXIglWe5bsuAlKh/sgrkowDCvlGkqYKIdeEnMB7tgLjqIn+V8sAvmQuRCH8NYXu430e8w64x5icoHu2AuCjDMK2WaCphoB14S88EumIsO4mc5H+yCuRC53GaK5UXO12IY5pUyTQVMtAMviflgF8xFB/GznA92wVyIJdFrx3oY5pUyTQVMtAMviflgF8xFB/GznA92wVyISniJyge7YC4KMMwrZZoKmGgHXhLzwS6Yiw7iZzkf7IK5EJXwEpUPdsFcFGCYV8o0FTDRDrwk5oNdMBcdxM9yPtgFcyEq4SUqH+yCuSjAMK+UaSpgoh14ScwHu2AuOoif5XywC+ZCVMJLVD7YBXNRgGFeKdNUwEQ78JKYD3bBXHQQP8v5YBfMhaiEl6h8sAvmogDDvFKmqYCJduAlMR/sgrnoIH6W88EumAtRCS9R+WAXzEUBhnmlTFMBE+3AS2I+2AVz0UH8LOeDXTAXohJeovLBLpiLAgzzSpmmAibagZfEfLAL5qKD+FnOB7tgLkQlvETlg10wFwUY5pUyTQVMtAMviflgF8xFB/GznA92wVyISniJyge7YC4KMMwrZZoKmGgHXhLzwS6Yiw7iZzkf7IK5EJXwEpUPdsFcFGCYV8o0FTDRDrwk5oNdMBcdxM9yPtgFcyEq4SUqH+yCuSjAMK+UaSpgoh14ScwHu2AuOoif5XywC+abwDf8+JYf3/Tj235C5OElKh/sgrkowDCvlGkqYKIdeEnMB7tgLjqIn+V8sAvmQ2frPtP9phh3m0mI5fASlQ92wVwUYJhXyjQVMNEOvCTmg10wFx3Ez3I+2AXzJZ2v201CLIeXqHywC+aiAMO8UqapgIl24CUxH+yCueggfpbzwS6Yb4JeO4pp8BKVD3bBXBRgmFfKNBUw0Q68JOaDXTAXHcTPcj7YBXMhKuElKh/sgrkowDCvlGkqYKIdeEnMB7tgLjqIn+V8sAvmQlQilqUiEsUY5pUyzfKgCNgFcyFqwUtiPtgFc9FB/Czng10wnwufMsX/kdVHTaL7cK5FeYb5p4y0PCgCdsFciFrwkpgPdsFcdBA/y/lgF8znwqdNzw+rQ15his7Xo0xfNpGGm00HmWAXE7+zeqQv9zQBy2+YjjZdToDzWtNzwuqKw03fM7F/HMH1pu1N7GdLExxnujCsrrjG9HthNVli97jk14oVG013uS42Pdg0zimmmF50gQnWmD5vIh1s/0oTvNz0grCa8BnTI0yk+4MEOG81se/x8EhM9xtN5MVmpkebyJ+9TKKdDK/NeV6kbcGrrHywC+ZC1IKXxHywC+aig/hZzge7YD4X8pyvtSb+99amyE9NB5pwQFiPYLfB9KcmnDVg+ccmwnFo2OYhJvaNc/N0E+FnuHBM+L2Tif29xfQG0/Wm60yAw3SY6TWmq0w4bk82nW/6qinui7hJrXd/aXp1WF3xXBNOEWxuOtL0YtNlJv7/jiacvi+ZSAci/ADTM00/9DD0bdOLTIRzDPzvK0wvNLHvmG7Ahv2Q3uhg1sWbfCnKwXlMGK70GK+y8sEumAtRC14S88EumIsO4mc5H+yC+VzIc75wGnAwTjMBzgNp2c6Eo4FzESEcJwto2bnF9IHk16ZcYsL5opWL7WgBgtNNtD5F5+tBJsBJyjpfxOHkQXS+TvB1RoCSblqfcIqy4ESy7cOTX6PO19dN7AOeZsIuOl+vN0VwOKPz9UUCHPIiOl8xHMeKljIcsOh87WxiH7T8kbfnmeqE4xTlGeafMtLyoAjYBXMhasFLYj7YBXPRQfws54NdMK8NnIiHmuJrPJwYWrCWAmcI5wsnqAgrTbx62yL5VY0dTLuF1U3A6Rl/xUfLT2wJ41Xq7mE1OeZsi58Qkxhem6qo21OhiX7jJTEf7IK56CB+lvPBLpi3gseanhJWRQvQa8dqDK9NVdTdrNBE9/CSmA92wVx0ED/L+WAXzIWYOSpb1RjmnzJSFZpoB14S88EumIsO4mc5H+yCuRCiYQyvTV2kqtBEO/CSmA92wVx0ED/L+WAXzBsN/aYY5YeYngEmTVPxJF/PitGFjHxkVCNTL2B/tYl+ZeeYmMYhwvrLwmrSGT67H0ZWlpmmIjs9BP3PGGzwZhPTQdBpn75iHNdFJvq9YR//Jx31X2dqK3rtWI3htdmGi3TeeJWVD3bBXIha8JKYD3bBXHQQP8v5YBfMGwvOTXZkIaMJ9zGR7knTVAAjCnFcIoyoZEqHyJ+ZmPcLB4jO+0e5WCcM2P6QsJqMNjzbVGaaCkYoss7+GKkZBwr8tSl7XIxQ/IQJe9LBlBbMWYZjts7URlS/VGOYf8pIy4MiYBfMhagFL4n5YBfMRQfxs5wPdsG8sTCVAlMqMFqRlieckf1NS01TAZOcL+L3MOH8fMwUW2UeZoqtanG0Ii1oOHPRERt3vqaZpgJnCsePfbEfWuu2MeFssQ0tcOyPaTmYdiI7nQTb/I2JecZE/xhem8OVHuNVVj7YBXMhasFLYj7YBXPRQfws54NdMG88TEfB3FhZxqepWAqcL1qptjVFBywLzl10mnDGcOzGwWmKLWGzhGNiwtkuoteO1Rhem6qou1ehiW7iJTEf7IK56CB+lvPBLph3GpybONlqFvpgHWPaNfklZo3ql2oM808ZqQpNtAMviflgF8xFB/GznA92wVwI0TCG16YuUlVooh14ScwHu2AuOoif5XywC+ZCzBy9dqzG8NrURaoKTbQDL4n5YBfMRQfxs5wPdsFciJmjslWNYf4pI1WhiXbgJTEf7IK56CB+lvPBLpgLIRrG8NrURaoKTbQDL4n5YBfMRQfxs5wPdsFciJmj147VGF6bukhVoYl24CUxH+yCueggfpbzwS6YCzFzVLaqMcw/ZaQqNNEOvCTmg10wX5IXmP7L9BvTCQSI1uBnOR/sgrkQomEMr01dpKrQRDvwkpgPdsF8yPNMPzHdY4rxrD/RFL9nB8zIzcSWaCsCHD73wuzdiDmUIqtMzOSNVhPgMOkls5IjZi+P7GBi8knErOKRnU1rXLsQ4DCPE3M1oeynWHYz7e5aT4DDRJt7mpjRnEk6I3ubNrj4hE2EiTf5rA3alwDnEaZHuvjWYGQ/E/NKoccQ4DAz+wGuxxLg/DcT3wFE8RM58HgT3wlETyDA4XwwCzvim4aRg03Mqo78LOeDnUmIeaDXjtUYXpu6SFWhiXbgJTEf7IL5kNNNPzDdYYrxvzJlb/CiHfhZzge7YC7EzFHZqsYw/5SRqtBEO/CSmA92wXxJ+P4cH/n9telkAkRr8LOcD3bBXAjRMIbXpi5SVWiiHXhJzAe7YC46iJ/lfLAL5kLMHL12rMbw2tRFqgpNtAMviflgF8xFB/GznA92wVyImaOyVY1h/ikjVaGJduAlMR/sgnlpNjedY2I/d/nyG6ZsJ3NRD36W88EumAshGsbw2tRFqgpNtAMviflgF8xL80PTs8PqEByym01nmy7z9awYoXfNWNiXTfAG01Wmn5pw5l5nAkY3ft5Eegl/pQlebor7+KLpj0xwuOmDYTUZdflR05tNW5guMUVHkf/FCM1xTjFl03eBCfLSwbQckc+YGAmZTQe81cS+x8Mj5AsjG99outy0mYkRkzi0jMwsS9XzLEQZ9NqxGsPrVhew5UERsAvmQtSCl8R8sAvmpWDaB7ZnOodx/sqUdS6+bnpaWE3AoTksrCbTN8R0sA0OWATn7RUmHLojTS/2MOyZhuJC0/WmM0xs+1UTPNP0PRP/FyeG7SNM93Cm6e0m9nOsaZy/NL06rK54rgmnCPLS8SUTaUeEM50E6cBBjeHfNr3IRDjOG07hFaYXmqLTGvMFG/bDMWWn+SiDboKiDii/ojzD/FNGWh4UAbtgLkQteEnMB7tgXhpae3Au4pxVzP/1GhMtV8zVFZnG+cKWucPYnn0f5WFxklf2g310el5vArbB4Xq6CccFZ4iWI5wbWtaYewyn8D0mwGnEARp3vmgJY/+kC7LOV5F0AMcfnS9a5CKkJTpfMRzHipYyHLCYLzi27IPRpuTBeSYhRL8Y1s/DlR7jt618sAvmQtSCl8R8sAvmlcHxYSJSJjmtAs7XS03sh1d8WZhUlclSAYdl0uvCIjDRK5Oo8goS54wJYLPg9Iy/4qPlKLaEzSodi0T1kagDtbhWY3jd6gJe/E1NiDJ4ScwHu2DeGOgnFR0bMTt0ExR1oPtgNYb5p4xs701N9AsviflgF8yFEEI0jGH9rIpaNzXRDrwk5oNdMBcdR+dZ1IFaXKsxvG51AeumJtqBl8R8sAvmc4XO5XyiiP91g2nS6MhjTNGGTun0o+JD21d6GJ3OGdEIS01f8SkT20Z7Ot7/vonO7JFnmRhhCEtNJ7HUtBHZcD4ETid+voVJOtk+jkik4z0d9Jnigg+V04eMNDFqkQ9381Fvpo7g49fw16Z536R0ExR1QLkX5RnmnzLS8qAI2AVzIWrBS2I+2AXzucG8W4w6jNApn/9JR/dIHJkYWWfCQWPkIvNhRZgy4iVhNWF8BCUO1xFhNQGnhw+CX2rC+djWxP9eb4KlppNYatqIOKLxKSYcRdLzKtNOJmxw/JhKAmcswnGcZmI7tnmnCRgVSvrZDidRCCHGoX5IGK70GL9t5YNdMBeiFrwk5oNdMJ8bcRqJOG0DTkh26gXAsWHKB6aWwCmjBYsWJlq4cJwIW2vCmYrTU8Ak5+uisLri8Sb+L44QoxrZFufnVBPkTSex1LQRhLMNaYKLTVnnC4eKli6OBSeT1jwcSGA0KMcdnS+m46D1i/nC2D/7mCekT4hFoxbXagyvW13AlgdFwC6YC1ELXhLzwS6Yzx1ewe1pyk52Ok52CocshK0Oq7ngfDE7/ENNTCeRBScpOk2Aw5M3ncSswCFjWguOH8antVgUugmKOtB9sBrD/FNGNu+mJsQkvCTmg10w7wRPNI07XcAkrfuFVSGEaA3D+lkORT9vaqJ9eEnMB7tgLjqOzrOoA7W4VmN43eoC1k1NtAMviflgF8xFx9FNUNSB6pdqDPNPGambmmgHXhLzwS6YCyGEaBjD+lkVtW5qor2oTPYXnXtRB2pxrcbwutUFbHlQBOyCuRCNQRVhf9G5F3Wg+2A15HxlcPcqH+yCuRBCCCHE1Mj5yuDuVT7YBXMhGoPKZH/RuRd1oBbXagyvW13AlgdFwC6YC9EYVBH2F517UQe6D1ZDzlcGd6/ywS6YCyGEEEJMjZyvDO5e5YNdMBeiMahM9hede1EHanGtxvC61QVseVAE7IK5EI1BFWF/0bkXdaD7YDXkfGVw9yof7IK5EEIIIcTUyPnK4O5VPtgFcyEag8pkf9G5F3WgFtdqDK9bXcCWB0XALpgL0RiaUBHuZnqz6aOmt/jvaXmc6XjTi5Jfogi6CYo60H2wGnK+Mrh7lQ92wVwI4bzG9IawOoTfhF9putn0bdM3TIea/sz0PddzTCtNPzV9wvRF09NNgD2/bzGdQ4DxUhP7YluctHUmbNaaTjGxvx1NnzftZXqUif2wzSWmzUwXmx5hgveY9jPFsM1NpOM002rT9Sa2/YxpjUkIIaoi5yuDu1f5YBfMhWgMdZdJHBiclSz8JhwOMF0XVlc81oRzE/mY6VRTNuwaE61gdyW/AmxPGA7dl004QzhgEX7jwKGvEuCwD5wz4nECcfz4n2yLU0Y8+yUMp4+wV5hw7KLjyLbs829MTUP1kagDtbhWY3jd6gK2PCgCdsFciMbQhIpwo+mHJhwVli82RbLOF7zehFODYovZW004SYh14FrDGfq66V2mrU20Ql1husGEo4XjRssYLV9nmmgZ29nDHmM6woSj9SkTadvGhKNFmiA6eoRdSoCB44V4dUoaaf1i+XBT09BNUNSB7oPVGOafMtLyoAjYBXMhxJzBERNCiK4h5yuDu1f5YBfMhagFL4n5YBfMRcfReRZ1oBbXagyvW13AuqmJduAlMR/sgvnMYAQjIxnPMjXx9Vtf0U1Q1IHug9UY5p8ysr6bmhDT4CUxH+yCeSHG+2RdZKJ/1cNM9Jd6tIn90QdqFxN9urYz0amezulAJ/jdTfTDgqtNdGang322j1XsOE+fKrZlP4wwhLhthL5hLwmrSZ+vo0zxfyPWdzAB+43/4zzT5WE1cRbZljBGTG5l4v/Q9+swUxwU8GkTxxv7ewFL+rLFsP1NbMvxcFz8T/qZ0ZfsIaY/MNE/jOP5PROd9KMdPNfEdBxCiH4zrJ/lUMznpibErPGSmA92wbwQWedrvYlO7Vua9jbhfO3qYTgVTNVA53OmeHi7KU4LEZ0vHC46ydPpPTopSzlf0cl5uQkna9z5YvqHZ4bVFa8y4XzRkf5BJtIXO9rDuPN1YVhdcZIJZxLiKEmmuwCcsmPD6rLOF//rdaZ4PCzpk/b7ppiOZ5kuM8EGE3mWdb72MWVHYs4C1UeiDtTiWo3hdasLeD43NSFmjZfEfLAL5qXAuaGVC0frwaYtTMD8WduH1aRljLhp2daEE1QUWqpiWiLsAy0FzhfzfeEg4qRFaHmKoyufZ3p+WE3g/+A0zgLmAyuTN2XQTVDUge6D1RjmnzJyMTc1IariJTEf7Ey02vRdsZVLCCGawtCPkEMx3U1NiLrwkpgPdsG81/Ca8nNhtbPoPIs6UItrNYbXrS5g3dREO/CSmA92wbzX9MH50k1Q1IHql2oM808ZqZuaaAdeEvPBLpj3mj44X0KI9jGsn1VR66Ym2oGXxHywC+a9Rq8dhZgPanGtxvC61QWsm5poB14S88EumPcavXYUYj6ofqnGMP+UkbqpiXbgJTEf7IJ5r9FrRyFEExnWz6qodVMT7cBLYj7YBfNeo9eOQswHtbhWY3jd6gLWTU20Ay+J+WAXzHuNXjsKMR9Uv1RjmH/KSN3URDvwkpgPdsG81+i1oxCiiQzrZ1XUuqmJduAlMR/sgnmv0WtHIeaDWlyrMbxudQHrpibagZfEfLAL5r1Grx2FmA+qX6oxzD9lpG5qoh14ScwHu2Dea/TaUQjRRIb1sypq3dREO/CSmA92wXwTVpv+yvRr070EdBi9dhRiPqjFtRrD61YXcPWbmhCLwEtiPtgF86GzdZ/pflOMu83UdfTaUYj5oPtgNYb5p4y0PCgCdsFciFrwkpgPdsF8SefrdpMQQojFM/Qjhis9xm9b+WAXzIWoBS+J+WAXzDehT68d+4DqI1EHanGtxvC61QVc/aYmxCLwkpgPdsFcdBzdBEUdqH6pxjD/lJG6qYl24CUxH+yCuRBCiIYxrJ9VUeumJtqBl8R8sAvmouPoPIs6UItrNYbXrS5g3dREO/CSmA92wVx0HN0ERR2ofqnGMP+UkbqpiXbgJTEf7IK5EEKIhjGsn1VR66Ym2oGXxHywC+ai4+g8izpQi2s1htetLmDd1EQ78JKYD3bBXHQc3QRFHah+qcYw/5SRuqmJduAlMR/sgrkQQoiGMayfVVHrpibai8pkf9G5F3WgFtdqDK9bXcCWB0XALpgL0RhUEfYXnXtRB7oPVkPOVwZ3r/LBLpgLIYQQQkyNnK8M7l7lg10wF6IxqEz2F517UQdqca3G8LrVBWx5UATsgrkQjUEVYX/RuRd1oPtgNeR8ZXD3Kh/sgrkQQgghxNTI+crg7lU+2AVzIRqDymR/0bkXdaAW12oMr1tdwJYHRcAumAvRGFQR9hede1EHug9WQ85XBnev8sEumAshhBBCTI2crwzuXuWDXTAXojGoTPYXnXtRB2pxrcbwutUFbHlQBOyCuRCNQRVhf9G5F3Wg+2A15HxlcPcqH+yCuRBCCCHE1Mj5yuDuVT7YBXMhGoPKZH/RuRd1oBbXagyvW13AlgdFwC6YC9EYVBH2F517UQe6D1ZDzlcGd6/ywS6YCyGEEEJMjZyvDO5e5YNdMBeiMahM9hede1EHanGtxvC61QVseVAE7IK5EI1BFWF/0bkXdaD7YDXkfGVw9yof7IK5EEIIIcTUyPnK4O5VPtgFcyEag8pkf9G5F3WgFtdqDK9bXcCWB0XALpgL0RhUEfYXnXtRB7oPVkPOVwZ3r/LBLpgLIYQQQkyNnK8M7l7lg10wF6IxqEz2F517UQdqca3G8LrVBWx5UATsgrkQjUEVYX/RuRd1oPtgNeR8ZXD3Kh/sgrkQQgghxNTI+crg7lU+2AVzIRqDymR/0bkXdaAW12oMr1tdwJNRvog2oIqwv+jcizrQvbEacr6WQRWbEEIIIWaJnC8hOoCu3/6icy/qQA0T1ZDztQzKF9EGVBH2F517UQe6N1ZDztcyqGITQgghxCyR8yVEB9D121907kUdqGGiGnK+lkH5ItqAKsL+onMv6kD3xmrI+VoGVWxCCCGEmCVyvoToALp++4vOvagDNUxUQ87XMihfRBtQRdhfdO5FHejeWA05X8ugik0IIYQQs0TOlxAdQNdvf9G5F3WgholqyPlaBuWLaAOqCPuLzr2oA90bqyHnaxlUsQkhhBBilsj5EqID6PrtLzr3og7UMFENOV/LoHwRbUAVYX/RuRd1oHtjNeR8LYMqNiGEEELMEjlfQnQAXb/9Rede1IEaJqoh52sZlC+iDagi7C8696IOdG+shpyvZVDFJoQQQohZIudLiA6g67e/6NyLOlDDRDXkfC2D8kW0AVWE/UXnXtSB7o3VkPO1DKrYhBBCCDFL5HwJ0QF0/fYXnXtRB2qYqIacr2VQvog2oIqwv+jcizrQvbEacr6WQRWbEEIIIWaJnC8hOoCu3/6icy/qQA0T1ZDztQzKF9EGVBH2F517UQe6N1ZDztcyqGITQgghxCyR8yVEB9D121907kUdqGGiGnK+lkH5ItqAKsL+onMv6kD3xmrI+VoGVWxCCCGEmCVyvoToALp++4vOvagDNUxUQ87XMihfRBtQRdhfdO5FHejeWA05X8ugik0IIYQQs0TOlxBCCCHEApHzJYQQQgixQOR8CSGEEEIsEDlfQgghhBALRM6XEEIIIcQCkfMlhBBCCLFA5HwJIYQQQiwQOV9CCCGEEAtEzpcQQgghxAKR8yWEEEIIsUDM51qx4v8HseanKAqD+YYAAAAASUVORK5CYII=;" parent="1" vertex="1">
          <mxGeometry width="607" height="519" as="geometry" />
        </mxCell>
        <mxCell id="pg5HeRpY9zaduSCmaGFV-6" value="" style="shape=umlLifeline;perimeter=lifelinePerimeter;whiteSpace=wrap;html=1;container=1;dropTarget=0;collapsible=0;recursiveResize=0;outlineConnect=0;portConstraint=eastwest;newEdgeStyle={&quot;edgeStyle&quot;:&quot;elbowEdgeStyle&quot;,&quot;elbow&quot;:&quot;vertical&quot;,&quot;curved&quot;:0,&quot;rounded&quot;:0};participant=umlActor;size=70;" parent="1" vertex="1">
          <mxGeometry x="40" y="560" width="30" height="400" as="geometry" />
        </mxCell>
        <mxCell id="pg5HeRpY9zaduSCmaGFV-11" value="" style="html=1;points=[];perimeter=orthogonalPerimeter;outlineConnect=0;targetShapes=umlLifeline;portConstraint=eastwest;newEdgeStyle={&quot;edgeStyle&quot;:&quot;elbowEdgeStyle&quot;,&quot;elbow&quot;:&quot;vertical&quot;,&quot;curved&quot;:0,&quot;rounded&quot;:0};" parent="pg5HeRpY9zaduSCmaGFV-6" vertex="1">
          <mxGeometry x="10" y="120" width="10" height="260" as="geometry" />
        </mxCell>
        <mxCell id="pg5HeRpY9zaduSCmaGFV-7" value="Сотрудник отдела кадров" style="text;html=1;strokeColor=none;fillColor=none;align=center;verticalAlign=middle;whiteSpace=wrap;rounded=0;" parent="1" vertex="1">
          <mxGeometry x="7.5" y="630" width="95" height="30" as="geometry" />
        </mxCell>
        <mxCell id="pg5HeRpY9zaduSCmaGFV-13" value="" style="endArrow=classic;html=1;rounded=0;" parent="1" target="s_s7OThj4xTKeMasWVnz-2" edge="1">
          <mxGeometry width="50" height="50" relative="1" as="geometry">
            <mxPoint x="60" y="710" as="sourcePoint" />
            <mxPoint x="210" y="710" as="targetPoint" />
          </mxGeometry>
        </mxCell>
        <mxCell id="pg5HeRpY9zaduSCmaGFV-23" value="" style="endArrow=none;html=1;rounded=0;" parent="1" edge="1">
          <mxGeometry width="50" height="50" relative="1" as="geometry">
            <mxPoint x="265" y="893" as="sourcePoint" />
            <mxPoint x="215" y="893" as="targetPoint" />
          </mxGeometry>
        </mxCell>
        <mxCell id="pg5HeRpY9zaduSCmaGFV-24" value="" style="endArrow=none;html=1;rounded=0;" parent="1" edge="1">
          <mxGeometry width="50" height="50" relative="1" as="geometry">
            <mxPoint x="265" y="915" as="sourcePoint" />
            <mxPoint x="265" y="893" as="targetPoint" />
          </mxGeometry>
        </mxCell>
        <mxCell id="pg5HeRpY9zaduSCmaGFV-25" value="" style="endArrow=classic;html=1;rounded=0;" parent="1" edge="1">
          <mxGeometry width="50" height="50" relative="1" as="geometry">
            <mxPoint x="265" y="915" as="sourcePoint" />
            <mxPoint x="215" y="915" as="targetPoint" />
          </mxGeometry>
        </mxCell>
        <mxCell id="pg5HeRpY9zaduSCmaGFV-26" value="&lt;div&gt;Запрос на&lt;/div&gt;&lt;div&gt;&amp;nbsp;получение &lt;br&gt;&lt;/div&gt;&lt;div&gt;списка сотрудников&lt;/div&gt;" style="text;html=1;align=center;verticalAlign=middle;resizable=0;points=[];autosize=1;strokeColor=none;fillColor=none;" parent="1" vertex="1">
          <mxGeometry x="65" y="653" width="130" height="60" as="geometry" />
        </mxCell>
        <mxCell id="pg5HeRpY9zaduSCmaGFV-27" value="&lt;div&gt;Отправка запроса &lt;br&gt;&lt;/div&gt;&lt;div&gt;на получение данных&lt;/div&gt;&lt;div&gt;о сотрудниках&lt;/div&gt;" style="text;html=1;align=center;verticalAlign=middle;resizable=0;points=[];autosize=1;strokeColor=none;fillColor=none;" parent="1" vertex="1">
          <mxGeometry x="220" y="673" width="140" height="60" as="geometry" />
        </mxCell>
        <mxCell id="pg5HeRpY9zaduSCmaGFV-29" value="" style="endArrow=none;html=1;rounded=0;" parent="1" edge="1">
          <mxGeometry width="50" height="50" relative="1" as="geometry">
            <mxPoint x="795" y="795.7" as="sourcePoint" />
            <mxPoint x="745" y="795.7" as="targetPoint" />
          </mxGeometry>
        </mxCell>
        <mxCell id="pg5HeRpY9zaduSCmaGFV-30" value="" style="endArrow=none;html=1;rounded=0;" parent="1" edge="1">
          <mxGeometry width="50" height="50" relative="1" as="geometry">
            <mxPoint x="795" y="815.7" as="sourcePoint" />
            <mxPoint x="795" y="795.7" as="targetPoint" />
          </mxGeometry>
        </mxCell>
        <mxCell id="pg5HeRpY9zaduSCmaGFV-31" value="" style="endArrow=classic;html=1;rounded=0;" parent="1" edge="1">
          <mxGeometry width="50" height="50" relative="1" as="geometry">
            <mxPoint x="795" y="815.7" as="sourcePoint" />
            <mxPoint x="745" y="815.7" as="targetPoint" />
          </mxGeometry>
        </mxCell>
        <mxCell id="pg5HeRpY9zaduSCmaGFV-32" value="&lt;div&gt;Bыборкa &lt;br&gt;&lt;/div&gt;&lt;div&gt;данных о &lt;br&gt;&lt;/div&gt;&lt;div&gt;сотрудниках&lt;/div&gt;" style="text;html=1;align=center;verticalAlign=middle;resizable=0;points=[];autosize=1;strokeColor=none;fillColor=none;" parent="1" vertex="1">
          <mxGeometry x="800" y="776" width="90" height="60" as="geometry" />
        </mxCell>
        <mxCell id="pg5HeRpY9zaduSCmaGFV-33" value="&lt;div&gt;Получение &lt;br&gt;&lt;/div&gt;&lt;div&gt;данных &lt;br&gt;&lt;/div&gt;&lt;div&gt;о сотрудниках&lt;/div&gt;" style="text;html=1;align=center;verticalAlign=middle;resizable=0;points=[];autosize=1;strokeColor=none;fillColor=none;" parent="1" vertex="1">
          <mxGeometry x="630" y="836" width="100" height="60" as="geometry" />
        </mxCell>
        <mxCell id="pg5HeRpY9zaduSCmaGFV-34" value="Empoyee.json" style="text;html=1;align=center;verticalAlign=middle;resizable=0;points=[];autosize=1;strokeColor=none;fillColor=none;" parent="1" vertex="1">
          <mxGeometry x="247" y="845" width="100" height="30" as="geometry" />
        </mxCell>
        <mxCell id="pg5HeRpY9zaduSCmaGFV-35" value="&lt;div&gt;Отображение &lt;br&gt;&lt;/div&gt;&lt;div&gt;списка сотрудников&lt;/div&gt;" style="text;html=1;align=center;verticalAlign=middle;resizable=0;points=[];autosize=1;strokeColor=none;fillColor=none;" parent="1" vertex="1">
          <mxGeometry x="227" y="910" width="130" height="40" as="geometry" />
        </mxCell>
        <mxCell id="pg5HeRpY9zaduSCmaGFV-36" value="" style="endArrow=classic;html=1;rounded=0;" parent="1" edge="1">
          <mxGeometry width="50" height="50" relative="1" as="geometry">
            <mxPoint x="210" y="926" as="sourcePoint" />
            <mxPoint x="60" y="926" as="targetPoint" />
          </mxGeometry>
        </mxCell>
        <mxCell id="pg5HeRpY9zaduSCmaGFV-37" value="Список сотрудников" style="text;html=1;align=center;verticalAlign=middle;resizable=0;points=[];autosize=1;strokeColor=none;fillColor=none;" parent="1" vertex="1">
          <mxGeometry x="70" y="901" width="140" height="30" as="geometry" />
        </mxCell>
        <mxCell id="s_s7OThj4xTKeMasWVnz-1" value="Employee.jsx" style="shape=umlLifeline;perimeter=lifelinePerimeter;whiteSpace=wrap;html=1;container=1;dropTarget=0;collapsible=0;recursiveResize=0;outlineConnect=0;portConstraint=eastwest;newEdgeStyle={&quot;edgeStyle&quot;:&quot;elbowEdgeStyle&quot;,&quot;elbow&quot;:&quot;vertical&quot;,&quot;curved&quot;:0,&quot;rounded&quot;:0};" vertex="1" parent="1">
          <mxGeometry x="160" y="560" width="100" height="440" as="geometry" />
        </mxCell>
        <mxCell id="s_s7OThj4xTKeMasWVnz-2" value="" style="html=1;points=[];perimeter=orthogonalPerimeter;outlineConnect=0;targetShapes=umlLifeline;portConstraint=eastwest;newEdgeStyle={&quot;edgeStyle&quot;:&quot;elbowEdgeStyle&quot;,&quot;elbow&quot;:&quot;vertical&quot;,&quot;curved&quot;:0,&quot;rounded&quot;:0};" vertex="1" parent="s_s7OThj4xTKeMasWVnz-1">
          <mxGeometry x="45" y="140" width="10" height="230" as="geometry" />
        </mxCell>
        <mxCell id="s_s7OThj4xTKeMasWVnz-3" value="EmployeeController" style="shape=umlLifeline;perimeter=lifelinePerimeter;whiteSpace=wrap;html=1;container=1;dropTarget=0;collapsible=0;recursiveResize=0;outlineConnect=0;portConstraint=eastwest;newEdgeStyle={&quot;edgeStyle&quot;:&quot;elbowEdgeStyle&quot;,&quot;elbow&quot;:&quot;vertical&quot;,&quot;curved&quot;:0,&quot;rounded&quot;:0};" vertex="1" parent="1">
          <mxGeometry x="320" y="560" width="110" height="410" as="geometry" />
        </mxCell>
        <mxCell id="s_s7OThj4xTKeMasWVnz-4" value="" style="html=1;points=[];perimeter=orthogonalPerimeter;outlineConnect=0;targetShapes=umlLifeline;portConstraint=eastwest;newEdgeStyle={&quot;edgeStyle&quot;:&quot;elbowEdgeStyle&quot;,&quot;elbow&quot;:&quot;vertical&quot;,&quot;curved&quot;:0,&quot;rounded&quot;:0};" vertex="1" parent="s_s7OThj4xTKeMasWVnz-3">
          <mxGeometry x="50" y="150" width="10" height="180" as="geometry" />
        </mxCell>
        <mxCell id="s_s7OThj4xTKeMasWVnz-5" value="GenericServiceImpl" style="shape=umlLifeline;perimeter=lifelinePerimeter;whiteSpace=wrap;html=1;container=1;dropTarget=0;collapsible=0;recursiveResize=0;outlineConnect=0;portConstraint=eastwest;newEdgeStyle={&quot;edgeStyle&quot;:&quot;elbowEdgeStyle&quot;,&quot;elbow&quot;:&quot;vertical&quot;,&quot;curved&quot;:0,&quot;rounded&quot;:0};" vertex="1" parent="1">
          <mxGeometry x="440" y="560" width="110" height="410" as="geometry" />
        </mxCell>
        <mxCell id="s_s7OThj4xTKeMasWVnz-6" value="" style="html=1;points=[];perimeter=orthogonalPerimeter;outlineConnect=0;targetShapes=umlLifeline;portConstraint=eastwest;newEdgeStyle={&quot;edgeStyle&quot;:&quot;elbowEdgeStyle&quot;,&quot;elbow&quot;:&quot;vertical&quot;,&quot;curved&quot;:0,&quot;rounded&quot;:0};" vertex="1" parent="s_s7OThj4xTKeMasWVnz-5">
          <mxGeometry x="50" y="180" width="10" height="130" as="geometry" />
        </mxCell>
        <mxCell id="s_s7OThj4xTKeMasWVnz-7" value="" style="endArrow=classic;html=1;rounded=0;" edge="1" parent="1" target="s_s7OThj4xTKeMasWVnz-6">
          <mxGeometry width="50" height="50" relative="1" as="geometry">
            <mxPoint x="380" y="749.31" as="sourcePoint" />
            <mxPoint x="532.79" y="749.31" as="targetPoint" />
          </mxGeometry>
        </mxCell>
        <mxCell id="s_s7OThj4xTKeMasWVnz-8" value="findAll()" style="text;html=1;align=center;verticalAlign=middle;resizable=0;points=[];autosize=1;strokeColor=none;fillColor=none;" vertex="1" parent="1">
          <mxGeometry x="400" y="728" width="60" height="30" as="geometry" />
        </mxCell>
        <mxCell id="s_s7OThj4xTKeMasWVnz-10" value="" style="endArrow=classic;html=1;rounded=0;" edge="1" parent="1">
          <mxGeometry width="50" height="50" relative="1" as="geometry">
            <mxPoint x="500" y="770" as="sourcePoint" />
            <mxPoint x="620" y="770" as="targetPoint" />
          </mxGeometry>
        </mxCell>
        <mxCell id="s_s7OThj4xTKeMasWVnz-11" value="&lt;div&gt;findAll().stream&lt;/div&gt;&lt;div&gt;.collect(Collectors&lt;/div&gt;&lt;div&gt;.toList())&lt;br&gt;&lt;/div&gt;" style="text;html=1;align=center;verticalAlign=middle;resizable=0;points=[];autosize=1;strokeColor=none;fillColor=none;" vertex="1" parent="1">
          <mxGeometry x="500" y="720" width="120" height="60" as="geometry" />
        </mxCell>
        <mxCell id="s_s7OThj4xTKeMasWVnz-12" value="JpaRepository" style="shape=umlLifeline;perimeter=lifelinePerimeter;whiteSpace=wrap;html=1;container=1;dropTarget=0;collapsible=0;recursiveResize=0;outlineConnect=0;portConstraint=eastwest;newEdgeStyle={&quot;edgeStyle&quot;:&quot;elbowEdgeStyle&quot;,&quot;elbow&quot;:&quot;vertical&quot;,&quot;curved&quot;:0,&quot;rounded&quot;:0};" vertex="1" parent="1">
          <mxGeometry x="570" y="560" width="110" height="410" as="geometry" />
        </mxCell>
        <mxCell id="s_s7OThj4xTKeMasWVnz-13" value="" style="html=1;points=[];perimeter=orthogonalPerimeter;outlineConnect=0;targetShapes=umlLifeline;portConstraint=eastwest;newEdgeStyle={&quot;edgeStyle&quot;:&quot;elbowEdgeStyle&quot;,&quot;elbow&quot;:&quot;vertical&quot;,&quot;curved&quot;:0,&quot;rounded&quot;:0};" vertex="1" parent="s_s7OThj4xTKeMasWVnz-12">
          <mxGeometry x="50" y="200" width="10" height="90" as="geometry" />
        </mxCell>
        <mxCell id="s_s7OThj4xTKeMasWVnz-14" value="DB" style="shape=umlLifeline;perimeter=lifelinePerimeter;whiteSpace=wrap;html=1;container=1;dropTarget=0;collapsible=0;recursiveResize=0;outlineConnect=0;portConstraint=eastwest;newEdgeStyle={&quot;edgeStyle&quot;:&quot;elbowEdgeStyle&quot;,&quot;elbow&quot;:&quot;vertical&quot;,&quot;curved&quot;:0,&quot;rounded&quot;:0};" vertex="1" parent="1">
          <mxGeometry x="700" y="560" width="78" height="410" as="geometry" />
        </mxCell>
        <mxCell id="s_s7OThj4xTKeMasWVnz-15" value="" style="html=1;points=[];perimeter=orthogonalPerimeter;outlineConnect=0;targetShapes=umlLifeline;portConstraint=eastwest;newEdgeStyle={&quot;edgeStyle&quot;:&quot;elbowEdgeStyle&quot;,&quot;elbow&quot;:&quot;vertical&quot;,&quot;curved&quot;:0,&quot;rounded&quot;:0};" vertex="1" parent="s_s7OThj4xTKeMasWVnz-14">
          <mxGeometry x="34" y="218" width="10" height="62" as="geometry" />
        </mxCell>
        <mxCell id="s_s7OThj4xTKeMasWVnz-16" value="" style="endArrow=classic;html=1;rounded=0;" edge="1" parent="1">
          <mxGeometry width="50" height="50" relative="1" as="geometry">
            <mxPoint x="630" y="785" as="sourcePoint" />
            <mxPoint x="735" y="785" as="targetPoint" />
          </mxGeometry>
        </mxCell>
        <mxCell id="s_s7OThj4xTKeMasWVnz-17" value="&lt;div&gt;Запрос на&lt;/div&gt;&lt;div&gt;&amp;nbsp;получение&lt;/div&gt;&lt;div&gt;&amp;nbsp;списка&lt;/div&gt;&lt;div&gt;&amp;nbsp;сотрудников&lt;/div&gt;" style="text;html=1;align=center;verticalAlign=middle;resizable=0;points=[];autosize=1;strokeColor=none;fillColor=none;" vertex="1" parent="1">
          <mxGeometry x="630" y="715" width="100" height="70" as="geometry" />
        </mxCell>
        <mxCell id="s_s7OThj4xTKeMasWVnz-18" value="" style="endArrow=classic;html=1;rounded=0;entryX=0.079;entryY=0.166;entryDx=0;entryDy=0;entryPerimeter=0;dashed=1;" edge="1" parent="1">
          <mxGeometry width="50" height="50" relative="1" as="geometry">
            <mxPoint x="620" y="840" as="sourcePoint" />
            <mxPoint x="500" y="840" as="targetPoint" />
          </mxGeometry>
        </mxCell>
        <mxCell id="s_s7OThj4xTKeMasWVnz-19" value="List&amp;lt;Employee&amp;gt;" style="text;html=1;align=center;verticalAlign=middle;resizable=0;points=[];autosize=1;strokeColor=none;fillColor=none;" vertex="1" parent="1">
          <mxGeometry x="505" y="845" width="110" height="30" as="geometry" />
        </mxCell>
        <mxCell id="s_s7OThj4xTKeMasWVnz-20" value="" style="endArrow=classic;html=1;rounded=0;entryX=0.079;entryY=0.166;entryDx=0;entryDy=0;entryPerimeter=0;dashed=1;" edge="1" parent="1">
          <mxGeometry width="50" height="50" relative="1" as="geometry">
            <mxPoint x="490" y="858" as="sourcePoint" />
            <mxPoint x="380" y="858" as="targetPoint" />
          </mxGeometry>
        </mxCell>
        <mxCell id="s_s7OThj4xTKeMasWVnz-21" value="List&amp;lt;Employee&amp;gt;" style="text;html=1;align=center;verticalAlign=middle;resizable=0;points=[];autosize=1;strokeColor=none;fillColor=none;" vertex="1" parent="1">
          <mxGeometry x="385" y="860" width="110" height="30" as="geometry" />
        </mxCell>
      </root>
    </mxGraphModel>
  </diagram>
</mxfile>
